<svg xmlns="http://www.w3.org/2000/svg" xmlns:xlink="http://www.w3.org/1999/xlink" width="21" height="22" viewBox="0 0 21 22">
  <defs>
    <clipPath id="clip-path">
      <rect id="Rectangle_1609" data-name="Rectangle 1609" width="21" height="22" transform="translate(-0.105)" fill="#6c737f"/>
    </clipPath>
    <clipPath id="clip-path-3">
      <rect id="Rectangle_1607" data-name="Rectangle 1607" width="14" height="17.25" fill="#6c737f"/>
    </clipPath>
  </defs>
  <g id="Group_536" data-name="Group 536" transform="translate(0.105)">
    <g id="Group_541" data-name="Group 541" clip-path="url(#clip-path)">
      <g id="Group_540" data-name="Group 540">
        <g id="Group_539" data-name="Group 539" clip-path="url(#clip-path)">
          <path id="Path_3475" data-name="Path 3475" d="M11.529,1H9.471a36.1,36.1,0,0,0-4.756.18,5.08,5.08,0,0,0-3.2,1.5A5.758,5.758,0,0,0,.164,6.049,45.66,45.66,0,0,0,0,11.174v.652a45.66,45.66,0,0,0,.164,5.125,5.758,5.758,0,0,0,1.354,3.374,5.08,5.08,0,0,0,3.2,1.495A36.1,36.1,0,0,0,9.471,22h2.058a36.1,36.1,0,0,0,4.756-.18,5.08,5.08,0,0,0,3.2-1.495,5.758,5.758,0,0,0,1.354-3.374A45.661,45.661,0,0,0,21,11.826v-.652a45.661,45.661,0,0,0-.164-5.125,5.758,5.758,0,0,0-1.354-3.374,5.08,5.08,0,0,0-3.2-1.5A36.1,36.1,0,0,0,11.529,1M3,8c-.459,0-.688,0-.834.144s-.149.371-.155.823C2,9.641,2,10.394,2,11.243v.514A44.882,44.882,0,0,0,2.149,16.7a3.819,3.819,0,0,0,.837,2.263A3.127,3.127,0,0,0,5,19.841,35.474,35.474,0,0,0,9.55,20h1.9A35.474,35.474,0,0,0,16,19.841a3.127,3.127,0,0,0,2.017-.874,3.819,3.819,0,0,0,.837-2.263A44.882,44.882,0,0,0,19,11.757v-.514c0-.849,0-1.6-.009-2.276-.006-.452-.009-.679-.155-.823S18.461,8,18,8Z" fill="#6c737f" fill-rule="evenodd"/>
          <g id="Group_538" data-name="Group 538" transform="translate(3.5)" opacity="0.4">
            <g id="Group_537" data-name="Group 537">
              <g id="Group_536-2" data-name="Group 536" clip-path="url(#clip-path-3)">
                <path id="Path_3476" data-name="Path 3476" d="M4.5,0a1,1,0,0,1,1,1v.092q-.413.035-.785.088A7.579,7.579,0,0,0,3.5,1.449V1a1,1,0,0,1,1-1M16.285,1.18a7.579,7.579,0,0,1,1.215.269V1a1,1,0,0,0-2,0v.092q.412.035.785.088M6.5,10.75a1.25,1.25,0,0,0,0,2.5h.009a1.25,1.25,0,0,0,0-2.5Zm4,0a1.25,1.25,0,1,0,0,2.5H10.5a1.25,1.25,0,0,0,0-2.5Zm3.995,0a1.25,1.25,0,0,0,0,2.5H14.5a1.25,1.25,0,0,0,0-2.5Zm-7.991,4a1.25,1.25,0,0,0,0,2.5h.009a1.25,1.25,0,0,0,0-2.5Zm4,0a1.25,1.25,0,1,0,0,2.5H10.5a1.25,1.25,0,0,0,0-2.5Z" transform="translate(-3.5)" fill="#6c737f" fill-rule="evenodd"/>
              </g>
            </g>
          </g>
        </g>
      </g>
    </g>
  </g>
</svg>
