<svg xmlns="http://www.w3.org/2000/svg" xmlns:xlink="http://www.w3.org/1999/xlink" width="21.501" height="21.5" viewBox="0 0 21.501 21.5">
  <defs>
    <clipPath id="clip-path">
      <rect id="Rectangle_1548" data-name="Rectangle 1548" width="21.501" height="21.5" fill="#1a8154"/>
    </clipPath>
    <clipPath id="clip-path-3">
      <rect id="Rectangle_1546" data-name="Rectangle 1546" width="5.5" height="1.5" fill="#1a8154"/>
    </clipPath>
  </defs>
  <g id="Group_398" data-name="Group 398" clip-path="url(#clip-path)">
    <g id="Group_397" data-name="Group 397">
      <g id="Group_396" data-name="Group 396" clip-path="url(#clip-path)">
        <g id="Group_395" data-name="Group 395" transform="translate(8 16)" opacity="0.4" style="mix-blend-mode: normal;isolation: isolate">
          <g id="Group_394" data-name="Group 394">
            <g id="Group_393" data-name="Group 393" clip-path="url(#clip-path-3)">
              <path id="Path_3437" data-name="Path 3437" d="M8,16.75A.75.75,0,0,1,8.75,16h4a.75.75,0,0,1,0,1.5h-4A.75.75,0,0,1,8,16.75" transform="translate(-8 -16)" fill="#1a8154" fill-rule="evenodd"/>
            </g>
          </g>
        </g>
        <path id="Path_3438" data-name="Path 3438" d="M9.008,2.054a32.613,32.613,0,0,0-2.8,1.9L4.771,5C3.8,5.7,3.108,6.2,2.607,6.647A3.226,3.226,0,0,0,1.7,7.794a3.09,3.09,0,0,0-.188,1.422c.031.653.156,1.47.335,2.634l.3,1.958A32.08,32.08,0,0,0,2.832,17.5,3.2,3.2,0,0,0,3.8,19.2a3.468,3.468,0,0,0,1.913.682,35.863,35.863,0,0,0,3.9.116h2.278a35.863,35.863,0,0,0,3.9-.116A3.468,3.468,0,0,0,17.7,19.2a3.2,3.2,0,0,0,.969-1.7,32.08,32.08,0,0,0,.688-3.691l.3-1.958c.179-1.164.3-1.981.335-2.634A3.09,3.09,0,0,0,19.8,7.794a3.226,3.226,0,0,0-.911-1.147C18.392,6.2,17.7,5.7,16.729,5L15.29,3.958a32.614,32.614,0,0,0-2.8-1.9A3.474,3.474,0,0,0,10.75,1.5a3.474,3.474,0,0,0-1.742.554M8.274.746A4.951,4.951,0,0,1,10.75,0a4.951,4.951,0,0,1,2.476.746,33.123,33.123,0,0,1,2.905,1.969L17.64,3.806c.937.677,1.685,1.218,2.249,1.719a4.721,4.721,0,0,1,1.3,1.68,4.566,4.566,0,0,1,.307,2.083c-.036.741-.174,1.635-.345,2.749l-.315,2.052a32.893,32.893,0,0,1-.722,3.827,4.666,4.666,0,0,1-1.45,2.439,4.934,4.934,0,0,1-2.692,1.018,36.5,36.5,0,0,1-4.028.127H9.561a36.5,36.5,0,0,1-4.028-.127,4.934,4.934,0,0,1-2.692-1.018,4.666,4.666,0,0,1-1.45-2.439,32.893,32.893,0,0,1-.722-3.827L.354,12.037C.183,10.923.045,10.029.009,9.288A4.566,4.566,0,0,1,.316,7.2a4.721,4.721,0,0,1,1.295-1.68c.564-.5,1.312-1.042,2.249-1.719L5.369,2.715A33.123,33.123,0,0,1,8.274.746" fill="#1a8154" fill-rule="evenodd"/>
      </g>
    </g>
  </g>
</svg>
