<svg id="Group_406" data-name="Group 406" xmlns="http://www.w3.org/2000/svg" xmlns:xlink="http://www.w3.org/1999/xlink" width="19.5" height="21.5" viewBox="0 0 19.5 21.5">
  <defs>
    <clipPath id="clip-path">
      <rect id="Rectangle_1551" data-name="Rectangle 1551" width="19.5" height="21.5" fill="#6c737f"/>
    </clipPath>
    <clipPath id="clip-path-3">
      <rect id="Rectangle_1549" data-name="Rectangle 1549" width="16.5" height="6.944" fill="#6c737f"/>
    </clipPath>
  </defs>
  <g id="Group_405" data-name="Group 405" clip-path="url(#clip-path)">
    <g id="Group_404" data-name="Group 404" transform="translate(0 0)">
      <g id="Group_403" data-name="Group 403" clip-path="url(#clip-path)">
        <path id="Path_3439" data-name="Path 3439" d="M.962,4.031A.749.749,0,0,0,0,4.75v9.109a20.022,20.022,0,0,0,.084,2.394,3.616,3.616,0,0,0,.689,1.818c.776,1.019,1.867,1.312,3.4,1.724l.175.048A51.846,51.846,0,0,0,12.688,21.3l.061.006a22.345,22.345,0,0,0,3.2.179,3.561,3.561,0,0,0,2.328-.884,3.661,3.661,0,0,0,1.1-2.314,25.57,25.57,0,0,0,.131-3.411V12.753a29.252,29.252,0,0,0-.107-3.306,3.8,3.8,0,0,0-.9-2.23,3.835,3.835,0,0,0-2.21-1.064,31.5,31.5,0,0,0-3.427-.345l-.05,0A63.515,63.515,0,0,1,.962,4.031m.538,9.78V5.726A71.444,71.444,0,0,0,12.7,7.3a30.848,30.848,0,0,1,3.3.325,2.387,2.387,0,0,1,1.393.611,2.353,2.353,0,0,1,.512,1.4A28.723,28.723,0,0,1,18,12.8v2.014a25.032,25.032,0,0,1-.115,3.253A2.19,2.19,0,0,1,17.26,19.5a2.081,2.081,0,0,1-1.4.493,21.523,21.523,0,0,1-3.022-.18,50.4,50.4,0,0,1-8.1-1.414c-1.779-.481-2.335-.664-2.769-1.233a2.149,2.149,0,0,1-.395-1.1,19.409,19.409,0,0,1-.071-2.25M15,13.75a.75.75,0,1,0-.75.75.75.75,0,0,0,.75-.75m-.75-2.25A2.25,2.25,0,1,1,12,13.75a2.25,2.25,0,0,1,2.25-2.25" transform="translate(0 0)" fill="#6c737f" fill-rule="evenodd"/>
        <g id="Group_402" data-name="Group 402" transform="translate(0 0)" opacity="0.4" style="mix-blend-mode: normal;isolation: isolate">
          <g id="Group_401" data-name="Group 401">
            <g id="Group_400" data-name="Group 400" clip-path="url(#clip-path-3)">
              <path id="Path_3440" data-name="Path 3440" d="M14.489,1.921c-.357-.451-.867-.462-1.892-.372A49.8,49.8,0,0,0,2.363,3.437l-.22-.717.22.717A1.3,1.3,0,0,0,1.5,4.713H0A2.8,2.8,0,0,1,1.923,2,51.314,51.314,0,0,1,12.466.054L12.55.047a3.256,3.256,0,0,1,3.115.942l-.586.465.586-.465A4.933,4.933,0,0,1,16.5,4.056a12.082,12.082,0,0,1-.4,2.889l-1.45-.385A10.537,10.537,0,0,0,15,4.048a3.5,3.5,0,0,0-.511-2.127" transform="translate(0 0)" fill="#6c737f" fill-rule="evenodd"/>
            </g>
          </g>
        </g>
      </g>
    </g>
  </g>
</svg>
