<svg id="Group_439" data-name="Group 439" xmlns="http://www.w3.org/2000/svg" xmlns:xlink="http://www.w3.org/1999/xlink" width="18.001" height="21.5" viewBox="0 0 18.001 21.5">
  <defs>
    <clipPath id="clip-path">
      <rect id="Rectangle_1576" data-name="Rectangle 1576" width="18.001" height="21.5" fill="#1b8354"/>
    </clipPath>
    <clipPath id="clip-path-3">
      <rect id="Rectangle_1574" data-name="Rectangle 1574" width="15.501" height="17.5" fill="#1b8354"/>
    </clipPath>
  </defs>
  <g id="Group_438" data-name="Group 438" clip-path="url(#clip-path)">
    <g id="Group_437" data-name="Group 437" transform="translate(0 0)">
      <g id="Group_436" data-name="Group 436" clip-path="url(#clip-path)">
        <g id="Group_435" data-name="Group 435" transform="translate(1.25 0)" opacity="0.4" style="isolation: isolate">
          <g id="Group_434" data-name="Group 434">
            <g id="Group_433" data-name="Group 433" clip-path="url(#clip-path-3)">
              <path id="Path_3451" data-name="Path 3451" d="M1.842,4.766a7.759,7.759,0,0,1,14.317,0,7.152,7.152,0,0,1-.748,6.988,25.084,25.084,0,0,1-3.93,4.361h0c-.24.228-.476.451-.7.669a2.564,2.564,0,0,1-3.555,0h0c-.239-.232-.489-.47-.744-.713a25.064,25.064,0,0,1-3.884-4.317,7.141,7.141,0,0,1-.751-6.987" transform="translate(-1.25 0)" fill="#1b8354"/>
            </g>
          </g>
        </g>
        <path id="Path_3452" data-name="Path 3452" d="M9,4.75a3,3,0,1,0,3,3,3,3,0,0,0-3-3M3.253,16.568a1,1,0,1,0-1.646-1.136A13.456,13.456,0,0,0,.282,17.645a2.6,2.6,0,0,0-.075,2.177,2.834,2.834,0,0,0,.217.383,3.087,3.087,0,0,0,2.316,1.18,29.807,29.807,0,0,0,3.468.115h5.585a29.825,29.825,0,0,0,3.468-.115,3.088,3.088,0,0,0,2.316-1.18,2.828,2.828,0,0,0,.216-.383,2.6,2.6,0,0,0-.074-2.177,13.527,13.527,0,0,0-1.325-2.213,1,1,0,1,0-1.646,1.136,11.849,11.849,0,0,1,1.129,1.857c.172.407.118.522.1.551h0l-.062.111c-.036.053-.17.216-.917.314a29.225,29.225,0,0,1-3.283.1H6.282A29.2,29.2,0,0,1,3,19.4c-.747-.1-.881-.261-.917-.314a.876.876,0,0,1-.063-.111h0c-.013-.029-.068-.144.105-.551a11.692,11.692,0,0,1,1.129-1.857" transform="translate(0 0)" fill="#1b8354" fill-rule="evenodd"/>
      </g>
    </g>
  </g>
</svg>
