<svg xmlns="http://www.w3.org/2000/svg" width="32" height="32" viewBox="0 0 32 32">
  <g id="Group_1463" data-name="Group 1463" transform="translate(-287 -16)">
    <path id="Path_4505" data-name="Path 4505" d="M287,32a16,16,0,1,1,16,16,16,16,0,0,1-16-16" fill="#fffaeb"/>
    <g id="Group_1462" data-name="Group 1462">
      <g id="Group_1461" data-name="Group 1461">
        <path id="Path_4506" data-name="Path 4506" d="M302.661,32.5h-.166a.5.5,0,0,1,0-1h.023a3.2,3.2,0,0,1,.409.017.786.786,0,0,1,.718.717,3.047,3.047,0,0,1,.016.41v2.689a.5.5,0,0,1-1,0V32.5Z" fill="#b54708"/>
        <path id="Path_4507" data-name="Path 4507" d="M302.995,29.333a.667.667,0,0,0,0,1.334H303a.667.667,0,0,0,0-1.334Z" fill="#b54708"/>
      </g>
      <path id="Path_4508" data-name="Path 4508" d="M301.908,25.343a3.471,3.471,0,0,1,2.184,0,3.841,3.841,0,0,1,1.819,1.573c.556.779,1.17,1.865,1.961,3.266l.031.055c.791,1.4,1.4,2.486,1.788,3.367a3.963,3.963,0,0,1,.423,2.384,3.61,3.61,0,0,1-1.085,1.92,3.788,3.788,0,0,1-2.247.823c-.939.1-2.168.1-3.75.1h-.065c-1.581,0-2.81,0-3.749-.1a3.788,3.788,0,0,1-2.247-.823,3.61,3.61,0,0,1-1.085-1.92,3.963,3.963,0,0,1,.423-2.384c.383-.881,1-1.967,1.788-3.367l.031-.055c.791-1.4,1.4-2.487,1.961-3.266a3.841,3.841,0,0,1,1.819-1.573m1.869.949a2.473,2.473,0,0,0-1.554,0,2.9,2.9,0,0,0-1.32,1.2c-.521.731-1.11,1.771-1.92,3.2s-1.4,2.475-1.757,3.3a3.017,3.017,0,0,0-.361,1.781,2.613,2.613,0,0,0,.783,1.388,2.847,2.847,0,0,0,1.678.565c.879.1,2.053.1,3.674.1s2.8,0,3.674-.1a2.847,2.847,0,0,0,1.678-.565,2.613,2.613,0,0,0,.783-1.388A3.017,3.017,0,0,0,308.774,34c-.359-.827-.947-1.868-1.757-3.3s-1.4-2.473-1.92-3.2a2.9,2.9,0,0,0-1.32-1.2" fill="#b54708" fill-rule="evenodd"/>
    </g>
  </g>
</svg>
