<svg xmlns="http://www.w3.org/2000/svg" xmlns:xlink="http://www.w3.org/1999/xlink" width="7.5" height="13.5" viewBox="0 0 7.5 13.5">
  <defs>
    <clipPath id="clip-path">
      <rect id="Rectangle_1828" data-name="Rectangle 1828" width="13.5" height="7.5" transform="translate(0 0)" fill="#fff"/>
    </clipPath>
  </defs>
  <g id="Group_1005" data-name="Group 1005" transform="translate(0 13.5) rotate(-90)">
    <g id="Group_1003" data-name="Group 1003" clip-path="url(#clip-path)">
      <path id="Path_3640" data-name="Path 3640" d="M12.146,7.2c-.122-.162-.486-.644-.7-.921-.435-.556-1.028-1.3-1.667-2.032A22.217,22.217,0,0,0,7.858,2.249a5.723,5.723,0,0,0-.783-.6A1.188,1.188,0,0,0,6.748,1.5a1.2,1.2,0,0,0-.323.149,5.643,5.643,0,0,0-.783.6A22.217,22.217,0,0,0,3.723,4.242c-.639.736-1.233,1.476-1.667,2.032-.216.277-.58.759-.7.92A.75.75,0,1,1,.146,6.3l0,0c.128-.17.5-.669.726-.952.444-.569,1.054-1.33,1.717-2.093A23.631,23.631,0,0,1,4.649,1.125a7.24,7.24,0,0,1,1-.76A2.2,2.2,0,0,1,6.75,0a2.206,2.206,0,0,1,1.1.365,7.24,7.24,0,0,1,1,.76,23.631,23.631,0,0,1,2.058,2.133c.663.763,1.273,1.524,1.717,2.093.221.283.6.782.726.951l0,0a.75.75,0,0,1-1.208.89" fill="#fff"/>
    </g>
  </g>
</svg>
