<svg xmlns="http://www.w3.org/2000/svg" xmlns:xlink="http://www.w3.org/1999/xlink" width="16.723" height="10.989" viewBox="0 0 16.723 10.989">
  <defs>
    <clipPath id="clip-path">
      <rect id="Rectangle_2066" data-name="Rectangle 2066" width="16.723" height="10.989" transform="translate(0 0)" fill="#fff"/>
    </clipPath>
  </defs>
  <g id="Group_1638" data-name="Group 1638" transform="translate(0 0)" clip-path="url(#clip-path)">
    <path id="Path_5186" data-name="Path 5186" d="M16.723,5.495a1.878,1.878,0,0,1-.309.936,5.635,5.635,0,0,1-.617.812A18.474,18.474,0,0,1,14.087,8.9c-.61.535-1.217,1.022-1.671,1.376-.227.172-.418.315-.55.42-.067.048-.119.086-.156.115l-.041.029-.011.01h0A.714.714,0,1,1,10.8,9.7l.012-.01.038-.029c.033-.029.084-.067.148-.115.128-.1.312-.239.532-.411.441-.344,1.028-.812,1.613-1.319A17.482,17.482,0,0,0,14.723,6.3l.076-.086H.717a.717.717,0,1,1,0-1.433H14.8l-.074-.086a18.9,18.9,0,0,0-1.576-1.519c-.585-.506-1.172-.975-1.613-1.319-.221-.172-.4-.315-.532-.411-.064-.048-.115-.086-.148-.115L10.815,1.3,10.8,1.29A.708.708,0,0,1,10.651.3a.708.708,0,0,1,1-.153h0l.011.01.041.029c.036.029.089.067.156.115.133.105.323.248.55.42.454.363,1.062.85,1.671,1.376A18.474,18.474,0,0,1,15.8,3.746a5.635,5.635,0,0,1,.617.812,1.87,1.87,0,0,1,.309.927" transform="translate(0 0)" fill="#fff"/>
  </g>
</svg>
