<svg xmlns="http://www.w3.org/2000/svg" xmlns:xlink="http://www.w3.org/1999/xlink" width="16.723" height="10.989" viewBox="0 0 16.723 10.989">
  <defs>
    <clipPath id="clip-path">
      <rect id="Rectangle_1838" data-name="Rectangle 1838" width="16.723" height="10.989" fill="#fff"/>
    </clipPath>
  </defs>
  <g id="Group_1030" data-name="Group 1030" clip-path="url(#clip-path)">
    <path id="Path_3661" data-name="Path 3661" d="M0,5.495a1.878,1.878,0,0,0,.309.936,5.635,5.635,0,0,0,.617.812A18.474,18.474,0,0,0,2.636,8.9c.61.535,1.217,1.022,1.671,1.376.227.172.418.315.55.42.067.048.119.086.156.115l.041.029.011.01h0A.714.714,0,1,0,5.92,9.7l-.012-.01-.038-.029c-.033-.029-.084-.067-.148-.115-.128-.1-.312-.239-.532-.411-.441-.344-1.028-.812-1.613-1.319A17.482,17.482,0,0,1,2,6.3l-.076-.086H16.006a.717.717,0,1,0,0-1.433H1.926L2,4.692A18.9,18.9,0,0,1,3.576,3.173c.585-.506,1.172-.975,1.613-1.319.221-.172.4-.315.532-.411.064-.048.115-.086.148-.115L5.907,1.3l.012-.01A.708.708,0,0,0,6.072.3a.708.708,0,0,0-1-.153h0l-.011.01L5.013.182C4.977.21,4.924.248,4.857.3c-.133.105-.323.248-.55.42-.454.363-1.062.85-1.671,1.376A18.474,18.474,0,0,0,.926,3.746a5.635,5.635,0,0,0-.617.812A1.87,1.87,0,0,0,0,5.485" transform="translate(0 0)" fill="#fff"/>
  </g>
</svg>
