<svg id="Group_1009" data-name="Group 1009" xmlns="http://www.w3.org/2000/svg" xmlns:xlink="http://www.w3.org/1999/xlink" width="355" height="355" viewBox="0 0 355 355">
  <defs>
    <clipPath id="clip-path">
      <rect id="Rectangle_1831" data-name="Rectangle 1831" width="355" height="355" fill="#f2e9f5"/>
    </clipPath>
  </defs>
  <g id="Group_1008" data-name="Group 1008" clip-path="url(#clip-path)">
    <path id="Path_3643" data-name="Path 3643" d="M177.408,0A177.408,177.408,0,1,0,354.816,177.409,177.407,177.407,0,0,0,177.408,0m0,330.731A153.322,153.322,0,1,1,330.731,177.409,153.322,153.322,0,0,1,177.408,330.732" transform="translate(0 -0.001)" fill="#f2e9f5"/>
    <path id="Path_3644" data-name="Path 3644" d="M480.8,106.984a4.554,4.554,0,0,0,4.549-4.549V88.821a4.549,4.549,0,0,0-9.1,0v13.614a4.554,4.554,0,0,0,4.549,4.549" transform="translate(-303.395 -53.685)" fill="#f2e9f5"/>
    <path id="Path_3645" data-name="Path 3645" d="M290.861,144.194a2.481,2.481,0,0,0-4.3,2.481l3.713,6.431a2.481,2.481,0,1,0,4.3-2.481Z" transform="translate(-182.342 -91.068)" fill="#f2e9f5"/>
    <path id="Path_3646" data-name="Path 3646" d="M153.105,290.277l-6.431-3.713a2.481,2.481,0,1,0-2.481,4.3l6.431,3.713a2.481,2.481,0,0,0,2.481-4.3" transform="translate(-91.068 -182.343)" fill="#f2e9f5"/>
    <path id="Path_3647" data-name="Path 3647" d="M150.625,667.777l-6.431,3.713a2.481,2.481,0,0,0,2.481,4.3l6.431-3.713a2.481,2.481,0,0,0-2.481-4.3" transform="translate(-91.068 -425.192)" fill="#f2e9f5"/>
    <path id="Path_3648" data-name="Path 3648" d="M293.666,803.568a2.484,2.484,0,0,0-3.389.908l-3.713,6.431a2.481,2.481,0,1,0,4.3,2.481l3.713-6.431a2.484,2.484,0,0,0-.908-3.389" transform="translate(-182.342 -511.697)" fill="#f2e9f5"/>
    <path id="Path_3649" data-name="Path 3649" d="M672.075,804.476a2.481,2.481,0,0,0-4.3,2.481l3.713,6.431a2.481,2.481,0,0,0,4.3-2.481Z" transform="translate(-425.192 -511.697)" fill="#f2e9f5"/>
    <path id="Path_3650" data-name="Path 3650" d="M813.387,671.491l-6.431-3.713a2.481,2.481,0,1,0-2.481,4.3l6.431,3.713a2.481,2.481,0,0,0,2.481-4.3" transform="translate(-511.696 -425.193)" fill="#f2e9f5"/>
    <path id="Path_3651" data-name="Path 3651" d="M806.956,294.574l6.431-3.713a2.481,2.481,0,1,0-2.481-4.3l-6.431,3.713a2.481,2.481,0,0,0,2.481,4.3" transform="translate(-511.696 -182.343)" fill="#f2e9f5"/>
    <path id="Path_3652" data-name="Path 3652" d="M674.879,143.287a2.484,2.484,0,0,0-3.389.908l-3.713,6.431a2.481,2.481,0,0,0,4.3,2.481l3.713-6.431a2.484,2.484,0,0,0-.908-3.389" transform="translate(-425.192 -91.069)" fill="#f2e9f5"/>
    <path id="Path_3653" data-name="Path 3653" d="M108.109,481.013a4.554,4.554,0,0,0-4.549-4.549H89.946a4.549,4.549,0,0,0,0,9.1H103.56a4.554,4.554,0,0,0,4.549-4.549" transform="translate(-54.402 -303.529)" fill="#f2e9f5"/>
    <path id="Path_3654" data-name="Path 3654" d="M482.137,829.812a4.554,4.554,0,0,0-4.549,4.549v13.615a4.549,4.549,0,1,0,9.1,0V834.361a4.554,4.554,0,0,0-4.549-4.549" transform="translate(-304.245 -528.627)" fill="#f2e9f5"/>
    <path id="Path_3655" data-name="Path 3655" d="M849.1,475.131H835.486a4.549,4.549,0,0,0,0,9.1H849.1a4.549,4.549,0,0,0,0-9.1" transform="translate(-529.344 -302.679)" fill="#f2e9f5"/>
  </g>
</svg>
