<svg xmlns="http://www.w3.org/2000/svg" width="12.972" height="13.945" viewBox="0 0 12.972 13.945">
  <path id="Icon" d="M8.367.387A1.943,1.943,0,0,0,7.36.021C7.135,0,6.865,0,6.566,0H6.4c-.256,0-.513,0-.769.022A1.942,1.942,0,0,0,4.611.4a1.934,1.934,0,0,0-.5.6c-.119.208-.237.467-.37.761l-.231.506H.649a.649.649,0,0,0,0,1.3h.564l.345,5.769c.049.814.087,1.46.168,1.976a3.16,3.16,0,0,0,.48,1.355,3.075,3.075,0,0,0,.919.874,3.086,3.086,0,0,0,1.368.4H8.466a3.085,3.085,0,0,0,1.367-.4,3.076,3.076,0,0,0,.919-.873,3.159,3.159,0,0,0,.482-1.353c.081-.515.12-1.16.17-1.973l.353-5.776h.566a.649.649,0,1,0,0-1.3h-2.8L9.246,1.7c-.137-.284-.259-.533-.379-.734A1.933,1.933,0,0,0,8.367.387ZM8.081,2.27c-.147-.3-.241-.495-.326-.637a.6.6,0,0,0-.511-.32C7.076,1.3,6.857,1.3,6.508,1.3s-.582,0-.754.016a.6.6,0,0,0-.517.333c-.081.141-.169.331-.3.624Z" fill="#d92b2b" fill-rule="evenodd"/>
</svg>
