<svg id="Group_1666" data-name="Group 1666" xmlns="http://www.w3.org/2000/svg" width="50.112" height="50.112" viewBox="0 0 50.112 50.112">
  <path id="Path_4505" data-name="Path 4505" d="M287,41.056a25.056,25.056,0,1,1,25.056,25.056A25.055,25.055,0,0,1,287,41.056" transform="translate(-287 -16)" fill="#c05728"/>
  <g id="Group_1462" data-name="Group 1462" transform="translate(13.833 13.355)">
    <g id="Group_1461" data-name="Group 1461" transform="translate(9.649 6.524)">
      <path id="Path_4506" data-name="Path 4506" d="M303.038,33.068c-.074,0-.157,0-.26,0a.783.783,0,1,1,0-1.566h.036a5.018,5.018,0,0,1,.641.027,1.231,1.231,0,0,1,1.124,1.123,4.774,4.774,0,0,1,.025.642V37.5a.783.783,0,0,1-1.566,0V33.068Z" transform="translate(-301.995 -28.106)" fill="#fff"/>
      <path id="Path_4507" data-name="Path 4507" d="M303.372,29.333a1.045,1.045,0,0,0,0,2.089h.009a1.045,1.045,0,0,0,0-2.089Z" transform="translate(-301.807 -29.333)" fill="#fff"/>
    </g>
    <path id="Path_4508" data-name="Path 4508" d="M305.346,25.443a5.436,5.436,0,0,1,3.42,0,6.015,6.015,0,0,1,2.849,2.463c.871,1.22,1.832,2.921,3.071,5.115l.049.086c1.239,2.192,2.2,3.893,2.8,5.273a6.206,6.206,0,0,1,.662,3.733,5.653,5.653,0,0,1-1.7,3.007,5.932,5.932,0,0,1-3.519,1.289c-1.47.16-3.4.16-5.872.16H307c-2.476,0-4.4,0-5.871-.16a5.932,5.932,0,0,1-3.519-1.289,5.653,5.653,0,0,1-1.7-3.007,6.207,6.207,0,0,1,.662-3.733c.6-1.38,1.561-3.08,2.8-5.273l.049-.086c1.239-2.194,2.2-3.895,3.071-5.115a6.015,6.015,0,0,1,2.849-2.463m2.927,1.486a3.872,3.872,0,0,0-2.434,0,4.548,4.548,0,0,0-2.067,1.887c-.816,1.145-1.738,2.773-3.007,5.017s-2.189,3.876-2.751,5.171a4.724,4.724,0,0,0-.565,2.789,4.092,4.092,0,0,0,1.226,2.174,4.458,4.458,0,0,0,2.628.885c1.377.15,3.215.15,5.754.15s4.377,0,5.754-.15a4.459,4.459,0,0,0,2.628-.885,4.092,4.092,0,0,0,1.226-2.174A4.724,4.724,0,0,0,316.1,39c-.562-1.3-1.483-2.925-2.751-5.171s-2.191-3.873-3.007-5.017a4.548,4.548,0,0,0-2.067-1.887" transform="translate(-295.833 -25.167)" fill="#fff" fill-rule="evenodd"/>
  </g>
</svg>
