<svg xmlns="http://www.w3.org/2000/svg" width="18.902" height="18.902" viewBox="0 0 18.902 18.902">
  <path id="Style_Solid_Type_Rounded_5_" data-name="Style=Solid, Type=Rounded (5)" d="M4.826,1.282a1.719,1.719,0,0,1,1.141.88l.785,1.409a14.486,14.486,0,0,1,.692,1.335,2.469,2.469,0,0,1,.223,1.239,2.469,2.469,0,0,1-.474,1.166,14.489,14.489,0,0,1-.952,1.164L5.087,9.8c-.207.238-.31.356-.32.5s.075.275.245.529a20.481,20.481,0,0,0,5.556,5.556c.254.17.38.254.529.245s.267-.113.5-.32l1.326-1.154a14.479,14.479,0,0,1,1.164-.952,2.261,2.261,0,0,1,2.4-.251,14.5,14.5,0,0,1,1.335.692l1.409.785a1.719,1.719,0,0,1,.88,1.141A1.7,1.7,0,0,1,19.732,18a5.47,5.47,0,0,1-5.267,2.053,12.912,12.912,0,0,1-4.04-1.553A20.891,20.891,0,0,1,2.9,10.978,12.91,12.91,0,0,1,1.348,6.938,5.469,5.469,0,0,1,3.4,1.671,1.7,1.7,0,0,1,4.826,1.282Z" transform="translate(-1.25 -1.25)" fill="#87ba26"/>
</svg>
