<svg xmlns="http://www.w3.org/2000/svg" width="21.5" height="18.5" viewBox="0 0 21.5 18.5">
  <path id="elements_3_" data-name="elements (3)" d="M13.432.037c-1.956-.049-3.409-.049-5.365,0l-.075,0A27.667,27.667,0,0,0,4.241.282a4.755,4.755,0,0,0-2.705,1.3A4.713,4.713,0,0,0,.245,4.254,26.243,26.243,0,0,0,.018,7.912l0,.075c-.021,1-.021,1.528,0,2.526l0,.075a26.244,26.244,0,0,0,.228,3.658,4.713,4.713,0,0,0,1.29,2.672,4.755,4.755,0,0,0,2.705,1.3,27.663,27.663,0,0,0,3.752.243l.075,0c1.956.049,3.409.049,5.365,0l.075,0a27.663,27.663,0,0,0,3.752-.243,4.519,4.519,0,0,0,4-3.972,26.22,26.22,0,0,0,.228-3.658l0-.075c.021-1,.021-1.528,0-2.526l0-.075a26.237,26.237,0,0,0-.228-3.658,4.712,4.712,0,0,0-1.29-2.672A4.241,4.241,0,0,0,18.559.644a1,1,0,0,0-.25-.1A6.5,6.5,0,0,0,17.259.282,27.666,27.666,0,0,0,13.507.039Zm6,6.063c-.019-.406-.029-.608-.176-.689s-.327.021-.688.226l-4.236,2.4A7.313,7.313,0,0,1,10.75,9.25,7.312,7.312,0,0,1,7.17,8.037l-4.235-2.4c-.361-.2-.542-.307-.688-.226S2.09,5.7,2.07,6.1c-.026.547-.04,1.18-.056,1.929-.021.97-.021,1.471,0,2.441a25.376,25.376,0,0,0,.2,3.434,2.74,2.74,0,0,0,.737,1.605,2.781,2.781,0,0,0,1.632.742,26.81,26.81,0,0,0,3.534.216c1.922.048,3.342.048,5.264,0a26.812,26.812,0,0,0,3.534-.216,2.781,2.781,0,0,0,1.632-.742,2.74,2.74,0,0,0,.737-1.605,25.375,25.375,0,0,0,.2-3.434c.021-.97.021-1.471,0-2.441C19.47,7.281,19.456,6.647,19.43,6.1Z" fill="#87ba26" fill-rule="evenodd"/>
</svg>
