<svg xmlns="http://www.w3.org/2000/svg" xmlns:xlink="http://www.w3.org/1999/xlink" width="19.746" height="14.007" viewBox="0 0 19.746 14.007">
  <defs>
    <clipPath id="clip-path">
      <rect id="Rectangle_2054" data-name="Rectangle 2054" width="19.746" height="14.007" transform="translate(0.014 -0.001)" fill="#fff"/>
    </clipPath>
  </defs>
  <g id="Group_1593" data-name="Group 1593" transform="translate(-0.014 0.001)">
    <g id="Group_1582" data-name="Group 1582" clip-path="url(#clip-path)">
      <path id="Path_5183" data-name="Path 5183" d="M5.3,9.41a2.3,2.3,0,1,0,2.3,2.3,2.3,2.3,0,0,0-2.3-2.3" fill="#fff"/>
      <path id="Path_5184" data-name="Path 5184" d="M19.142,2.788c-.107-.283-.23-.58-.368-.874h0a.086.086,0,0,1-.01-.041.1.1,0,0,1,.1-.1h0a.893.893,0,0,0,.9-.886h0a.892.892,0,0,0-.9-.884H10.409c-.653,0-1.2,0-1.662.041A3.593,3.593,0,0,0,7.388.4,5.507,5.507,0,0,0,5.352,2.5c-.108.168-.206.327-.3.479a7.17,7.17,0,0,1-1.016,1.4,4.818,4.818,0,0,1-1.675.8A3.387,3.387,0,0,0,.223,7.064a5.238,5.238,0,0,0-.208,1.9V9.79a8.056,8.056,0,0,0,.041,1.042A1.745,1.745,0,0,0,.541,11.88a1.78,1.78,0,0,0,1.061.479.451.451,0,0,0,.127.008.18.18,0,0,0,.148-.144.618.618,0,0,0-.006-.149,3.4,3.4,0,0,1-.019-.364h0a3.444,3.444,0,1,1,6.888,0c0,.081,0,.163-.008.244-.016.219-.026.329.031.387s.157.058.357.058h1.537c.2,0,.3,0,.357-.058s.047-.168.031-.387c-.008-.081-.008-.162-.008-.244a3.444,3.444,0,1,1,6.887,0,.711.711,0,0,0,.007.146.183.183,0,0,0,.191.131.5.5,0,0,0,.118-.037,2.428,2.428,0,0,0,1.253-.939,1.744,1.744,0,0,0,.247-.762c.02-.2.02-.446.02-.683V5.313a5.026,5.026,0,0,0-.18-1.156,13.128,13.128,0,0,0-.438-1.369m-7.42,1.621c0,.086,0,.13-.027.157s-.071.027-.157.027H6.485c-.155,0-.232,0-.255-.048s.017-.112.1-.242c.228-.358.532-.853.542-.869A3.82,3.82,0,0,1,8.218,1.973a1.807,1.807,0,0,1,.693-.166c.366-.034.837-.034,1.537-.034h1.09c.086,0,.13,0,.157.027s.027.07.027.157Zm6.013.11c-.055.075-.169.074-.4.074h-3.6c-.086,0-.13,0-.157-.027s-.027-.071-.027-.157V1.957c0-.087,0-.13.027-.157s.071-.027.157-.027h2.807c.094,0,.1,0,.149.078a8.287,8.287,0,0,1,.761,1.561c.038.1.139.423.228.707.067.217.1.325.045.4" fill="#fff"/>
      <path id="Path_5185" data-name="Path 5185" d="M14.483,9.41a2.3,2.3,0,1,0,2.3,2.3,2.3,2.3,0,0,0-2.3-2.3" fill="#fff"/>
    </g>
  </g>
</svg>
