<svg xmlns="http://www.w3.org/2000/svg" width="107" height="107" viewBox="0 0 107 107">
  <g id="Group_1456" data-name="Group 1456" transform="translate(-143 -168)">
    <circle id="Ellipse_154" data-name="Ellipse 154" cx="53.5" cy="53.5" r="53.5" transform="translate(143 168)" fill="#fff" opacity="0.7"/>
    <g id="Group_781" data-name="Group 781" transform="translate(173.751 193.695)">
      <g id="Group_451" data-name="Group 451">
        <path id="Path_3457" data-name="Path 3457" d="M40.784,36.608a22.749,22.749,0,1,0-36.07,0l18.035,19Z" fill="#87ba26"/>
        <path id="Path_3458" data-name="Path 3458" d="M21.776,27.682v7.17H17.584V14.5h7.938a9.17,9.17,0,0,1,4.032.839,6.172,6.172,0,0,1,2.676,2.382,6.639,6.639,0,0,1,.937,3.514,5.842,5.842,0,0,1-2.047,4.718,8.53,8.53,0,0,1-5.666,1.725Zm0-3.4h3.745a3.68,3.68,0,0,0,2.536-.782,2.847,2.847,0,0,0,.874-2.236,3.351,3.351,0,0,0-.88-2.417,3.292,3.292,0,0,0-2.432-.951H21.776Z" transform="translate(-0.555 -0.457)" fill="#fff"/>
      </g>
    </g>
  </g>
</svg>
