<svg xmlns="http://www.w3.org/2000/svg" width="32.907" height="32.907" viewBox="0 0 32.907 32.907">
  <g id="Style_Bulk_Type_Rounded_9_" data-name="Style=Bulk, Type=Rounded (9)" transform="translate(-1.75 -1.75)">
    <path id="Path_4529" data-name="Path 4529" d="M34.657,18.3a69.626,69.626,0,0,1-.29,8.435,8.758,8.758,0,0,1-2.3,5.341,8.758,8.758,0,0,1-5.341,2.3,69.626,69.626,0,0,1-8.435.29h-.184a69.626,69.626,0,0,1-8.435-.29,8.758,8.758,0,0,1-5.341-2.3,8.758,8.758,0,0,1-2.3-5.341A69.62,69.62,0,0,1,1.75,18.3h0v-.184h0a69.62,69.62,0,0,1,.29-8.435,8.758,8.758,0,0,1,2.3-5.341,8.758,8.758,0,0,1,5.341-2.3,69.62,69.62,0,0,1,8.435-.29H18.3a69.62,69.62,0,0,1,8.435.29,8.758,8.758,0,0,1,5.341,2.3,8.758,8.758,0,0,1,2.3,5.341,69.626,69.626,0,0,1,.29,8.435Z" fill="#87ba26" opacity="0.4"/>
    <path id="Path_4530" data-name="Path 4530" d="M12.733,15.026c.01.026.024.06.042.1a5.5,5.5,0,0,0,.421.73,20.665,20.665,0,0,0,1.532,1.965c.578.669,1.159,1.291,1.6,1.748l.72.732A1.605,1.605,0,1,1,14.8,22.593l-.785-.8c-.464-.483-1.086-1.148-1.713-1.873A23.733,23.733,0,0,1,10.52,17.63a8.614,8.614,0,0,1-.67-1.181A3.516,3.516,0,0,1,9.5,15.026,3.516,3.516,0,0,1,9.85,13.6a8.624,8.624,0,0,1,.67-1.181,23.732,23.732,0,0,1,1.779-2.29c.626-.725,1.249-1.391,1.713-1.874l.785-.8a1.605,1.605,0,1,1,2.249,2.291l-.72.732c-.439.457-1.02,1.079-1.6,1.748A20.665,20.665,0,0,0,13.2,14.2a5.5,5.5,0,0,0-.421.73C12.757,14.966,12.743,15,12.733,15.026Z" transform="translate(4.691 3.177)" fill="#87ba26"/>
  </g>
</svg>
