<svg xmlns="http://www.w3.org/2000/svg" xmlns:xlink="http://www.w3.org/1999/xlink" width="107" height="107" viewBox="0 0 107 107">
  <defs>
    <clipPath id="clip-path">
      <rect id="Rectangle_1515" data-name="Rectangle 1515" width="52.686" height="52.69" fill="#87ba26"/>
    </clipPath>
    <clipPath id="clip-path-2">
      <rect id="Rectangle_1514" data-name="Rectangle 1514" width="52.686" height="52.691" fill="#87ba26"/>
    </clipPath>
    <clipPath id="clip-path-3">
      <rect id="Rectangle_1513" data-name="Rectangle 1513" width="33.695" height="38.599" fill="#87ba26"/>
    </clipPath>
  </defs>
  <g id="Group_1455" data-name="Group 1455" transform="translate(-143 -168)">
    <circle id="Ellipse_154" data-name="Ellipse 154" cx="53.5" cy="53.5" r="53.5" transform="translate(143 168)" fill="#fff" opacity="0.7"/>
    <g id="Group_1193" data-name="Group 1193" transform="translate(170.157 195.155)">
      <g id="Group_332" data-name="Group 332" clip-path="url(#clip-path)">
        <g id="Group_331" data-name="Group 331" transform="translate(0 -0.001)">
          <g id="Group_330" data-name="Group 330" clip-path="url(#clip-path-2)">
            <path id="Path_3423" data-name="Path 3423" d="M5.277,26.344A21.553,21.553,0,0,1,26.832,4.791a21.318,21.318,0,0,1,16.841,8.2c.542.694.814,1.039.787,1.492s-.363.787-1.032,1.456L41.9,17.466a2.395,2.395,0,0,0,1.693,4.088h5.987a2.4,2.4,0,0,0,2.286-3.112A26.3,26.3,0,1,0,26.83,52.688a2.4,2.4,0,1,0,0-4.791A21.554,21.554,0,0,1,5.277,26.344" transform="translate(-0.488 0.001)" fill="#87ba26"/>
            <g id="Group_329" data-name="Group 329" transform="translate(18.991 14.092)" opacity="0.4" style="mix-blend-mode: normal;isolation: isolate">
              <g id="Group_328" data-name="Group 328">
                <g id="Group_327" data-name="Group 327" clip-path="url(#clip-path-3)">
                  <path id="Path_3424" data-name="Path 3424" d="M4.9,8.2a2.451,2.451,0,1,1,4.9,0V18a2.448,2.448,0,0,1-.718,1.733l-4.9,4.9A2.45,2.45,0,0,1,.717,21.172L4.9,16.986Zm24,9.8a2.4,2.4,0,0,1,4.791,0c0,.88-.039,1.752-.118,2.61a2.394,2.394,0,1,1-4.769-.429q.1-1.077.1-2.181m-1.51,8.369a2.395,2.395,0,1,1,4.482,1.688,28.113,28.113,0,0,1-1.348,3.022,2.4,2.4,0,0,1-4.252-2.208,22.723,22.723,0,0,0,1.117-2.5m-4.629,7.5a2.395,2.395,0,1,1,3.509,3.259,26.939,26.939,0,0,1-2.566,2.424,2.4,2.4,0,1,1-3.053-3.691,22.164,22.164,0,0,0,2.11-1.992m-6.832,4.963a2.395,2.395,0,1,1,1.995,4.355,25.393,25.393,0,0,1-2.644,1.037,2.394,2.394,0,0,1-1.5-4.548,21.087,21.087,0,0,0,2.147-.843" transform="translate(0 -5.75)" fill="#87ba26" fill-rule="evenodd"/>
                </g>
              </g>
            </g>
          </g>
        </g>
      </g>
    </g>
  </g>
</svg>
