<svg id="Group_373" data-name="Group 373" xmlns="http://www.w3.org/2000/svg" width="30" height="30" viewBox="0 0 30 30">
  <g id="Group_363" data-name="Group 363">
    <circle id="Ellipse_135" data-name="Ellipse 135" cx="15" cy="15" r="15" fill="#045859"/>
    <g id="Group_364" data-name="Group 364" transform="translate(9.824 3.236)">
      <g id="Group_1163" data-name="Group 1163" transform="translate(0 5.547)">
        <g id="Group_368" data-name="Group 368" transform="translate(0 0)">
          <g id="Group_1539" data-name="Group 1539">
            <path id="Path_3432" data-name="Path 3432" d="M9.309,9.278s.292.333.406.475c.243.289.568.693.892,1.144a11.021,11.021,0,0,1,.925,1.486,4.053,4.053,0,0,1,.519,1.757,3.651,3.651,0,0,1-7.3,0,4.053,4.053,0,0,1,.519-1.757A11.021,11.021,0,0,1,6.194,10.9c.325-.451.649-.855.892-1.144.114-.143.325-.388.406-.475V9.272a1.228,1.228,0,0,1,.909-.4" transform="translate(-4.75 -5.735)" fill="#fff" fill-rule="evenodd"/>
            <path id="Path_5175" data-name="Path 5175" d="M7.381,9.1s.169.192.234.274c.14.167.328.4.515.66a6.359,6.359,0,0,1,.534.858,2.339,2.339,0,0,1,.3,1.014,2.106,2.106,0,0,1-4.213,0,2.339,2.339,0,0,1,.3-1.014,6.358,6.358,0,0,1,.534-.858c.187-.26.374-.493.515-.66.066-.082.187-.224.234-.274v0a.709.709,0,0,1,.524-.233" transform="translate(1.39 -8.868)" fill="#fff" fill-rule="evenodd"/>
          </g>
        </g>
      </g>
    </g>
  </g>
</svg>
