<svg id="Group_1024" data-name="Group 1024" xmlns="http://www.w3.org/2000/svg" width="17.441" height="21.317" viewBox="0 0 17.441 21.317">
  <g id="Group_451" data-name="Group 451">
    <path id="Path_3457" data-name="Path 3457" d="M15.634,14.033a8.721,8.721,0,1,0-13.827,0l6.913,7.284Z" fill="#1b8354"/>
    <path id="Path_3458" data-name="Path 3458" d="M19.191,19.556V22.3H17.584V14.5h3.043a3.515,3.515,0,0,1,1.546.322,2.366,2.366,0,0,1,1.026.913,2.545,2.545,0,0,1,.359,1.347,2.24,2.24,0,0,1-.785,1.809,3.27,3.27,0,0,1-2.172.661Zm0-1.3h1.436a1.411,1.411,0,0,0,.972-.3,1.091,1.091,0,0,0,.335-.857,1.285,1.285,0,0,0-.337-.927,1.262,1.262,0,0,0-.932-.365H19.191Z" transform="translate(-11.056 -9.119)" fill="#a2cbba"/>
  </g>
</svg>
