<svg xmlns="http://www.w3.org/2000/svg" xmlns:xlink="http://www.w3.org/1999/xlink" width="62.805" height="73.046" viewBox="0 0 62.805 73.046">
  <defs>
    <filter id="Icon_1_" x="0" y="0" width="62.805" height="73.046" filterUnits="userSpaceOnUse">
      <feOffset dy="3" input="SourceAlpha"/>
      <feGaussianBlur stdDeviation="3" result="blur"/>
      <feFlood flood-opacity="0.412"/>
      <feComposite operator="in" in2="blur"/>
      <feComposite in="SourceGraphic"/>
    </filter>
  </defs>
  <g id="Group_1724" data-name="Group 1724" transform="translate(-275 -481.918)">
    <g transform="matrix(1, 0, 0, 1, 275, 481.92)" filter="url(#Icon_1_)">
      <path id="Icon_1_2" data-name="Icon (1)" d="M0,22.609a22.4,22.4,0,1,1,44.805,0c0,7.155-2.853,12.737-8.328,17.588A92.361,92.361,0,0,0,24.01,54.176a1.92,1.92,0,0,1-3.247-.051C18.287,50.064,11.889,43.354,8.328,40.2,2.853,35.347,0,29.765,0,22.609Z" transform="translate(9 6)" fill="#87ba26"/>
    </g>
    <path id="Path_3472" data-name="Path 3472" d="M21.533,26.918v6.754H17.584V14.5h7.477a8.638,8.638,0,0,1,3.8.79,5.814,5.814,0,0,1,2.521,2.244,6.254,6.254,0,0,1,.882,3.31,5.5,5.5,0,0,1-1.929,4.445A8.035,8.035,0,0,1,25,26.918Zm0-3.2h3.528a3.467,3.467,0,0,0,2.389-.736,2.682,2.682,0,0,0,.823-2.107,3.157,3.157,0,0,0-.829-2.277,3.1,3.1,0,0,0-2.291-.9h-3.62Z" transform="translate(282.416 487.308)" fill="#fff"/>
  </g>
</svg>
