<svg xmlns="http://www.w3.org/2000/svg" xmlns:xlink="http://www.w3.org/1999/xlink" width="52.884" height="37.11" viewBox="0 0 52.884 37.11">
  <defs>
    <clipPath id="clip-path">
      <rect id="Rectangle_2031" data-name="Rectangle 2031" width="52.884" height="37.11" fill="none"/>
    </clipPath>
  </defs>
  <g id="Group_1480" data-name="Group 1480" transform="translate(0 0)">
    <g id="Group_1479" data-name="Group 1479" transform="translate(0 0)" clip-path="url(#clip-path)">
      <path id="Path_5168" data-name="Path 5168" d="M5.987.542H46.428a5.429,5.429,0,0,1,5.444,5.412V30.693a5.43,5.43,0,0,1-5.444,5.414H5.987A5.429,5.429,0,0,1,.543,30.693V5.954A5.428,5.428,0,0,1,5.987.542" transform="translate(0.235 0.23)" fill="#fff"/>
      <rect id="Rectangle_2028" data-name="Rectangle 2028" width="51.329" height="35.563" rx="3.798" transform="translate(0.778 0.773)" fill="none" stroke="#e5e7eb" stroke-width="1.085"/>
      <rect id="Rectangle_2029" data-name="Rectangle 2029" width="16.152" height="5.349" transform="translate(7.776 19.906)" fill="#84b740"/>
      <rect id="Rectangle_2030" data-name="Rectangle 2030" width="16.152" height="5.354" transform="translate(7.776 12.607)" fill="#259bd6"/>
      <path id="Path_5169" data-name="Path 5169" d="M28.8,18.521l-.073.014a2.319,2.319,0,0,1-.522.067c-.423,0-.922-.214-.922-1.225,0-.519.087-1.21.873-1.21h.006a2.328,2.328,0,0,1,.575.108l.063.02Zm.129-5.039-.129.024v1.868l-.116-.033-.033-.01a2.647,2.647,0,0,0-.715-.124c-1.572,0-1.9,1.183-1.9,2.175a1.934,1.934,0,0,0,2.106,2.14,4.286,4.286,0,0,0,1.4-.2.618.618,0,0,0,.527-.677V13.287c-.374.067-.763.134-1.141.2" transform="translate(11.282 5.647)" fill="#27292d"/>
      <path id="Path_5170" data-name="Path 5170" d="M32.041,17.991l-.067.019-.239.061a2.454,2.454,0,0,1-.581.091c-.368,0-.589-.181-.589-.492,0-.2.09-.539.7-.539h.781Zm-.55-3.372a5.38,5.38,0,0,0-1.6.276l-.4.12.135.906.393-.13a4.688,4.688,0,0,1,1.309-.219c.173,0,.7,0,.7.569v.248h-.734c-1.337,0-1.957.423-1.957,1.334,0,.778.57,1.244,1.529,1.244a4.992,4.992,0,0,0,1.065-.142l.019,0,.02,0,.119.019c.374.067.763.134,1.142.205V16.074c0-.963-.586-1.455-1.736-1.455" transform="translate(12.713 6.213)" fill="#27292d"/>
      <path id="Path_5171" data-name="Path 5171" d="M25.541,17.991l-.067.019-.239.061a2.432,2.432,0,0,1-.581.091c-.37,0-.591-.181-.591-.492,0-.2.092-.539.691-.539h.781v.859Zm-.548-3.372a5.349,5.349,0,0,0-1.6.276l-.4.12.135.906.393-.13a4.688,4.688,0,0,1,1.309-.219c.173,0,.7,0,.7.569v.248h-.734c-1.339,0-1.961.423-1.961,1.334,0,.778.57,1.244,1.534,1.244a4.992,4.992,0,0,0,1.065-.142l.019,0,.02,0,.115.019c.378.067.763.134,1.141.211V16.078c0-.972-.581-1.459-1.732-1.459" transform="translate(9.895 6.213)" fill="#27292d"/>
      <path id="Path_5172" data-name="Path 5172" d="M22.559,14.626a3.262,3.262,0,0,0-1.3.286l-.047.023-.043-.033A1.983,1.983,0,0,0,20,14.622a4.788,4.788,0,0,0-1.376.205c-.409.124-.566.319-.566.685v3.4h1.276V15.771l.062-.019a1.616,1.616,0,0,1,.562-.1.5.5,0,0,1,.556.577v2.689h1.256V16.175a.971.971,0,0,0-.037-.276l-.043-.081.086-.037a1.5,1.5,0,0,1,.624-.13.507.507,0,0,1,.556.577v2.689h1.251V16.1c0-1-.538-1.478-1.65-1.478" transform="translate(7.828 6.214)" fill="#27292d"/>
      <path id="Path_5173" data-name="Path 5173" d="M33.038,12.338a4.29,4.29,0,0,1-.743-.067l-.072-.014V10.421a.844.844,0,0,0-.034-.262l-.039-.076.082-.034c.02-.009.039-.014.063-.023l.014-.01.086-.029a.16.16,0,0,1,.033-.01,2.973,2.973,0,0,1,.658-.076h0c.781,0,.873.691.873,1.21,0,1.012-.509,1.225-.926,1.225m0-3.49H33a2.27,2.27,0,0,0-1.756.591,1.189,1.189,0,0,0-.229.711v1.892a.557.557,0,0,1-.039.238l-.043.081H28.618V11.047h-.006A1.966,1.966,0,0,0,26.565,8.9H25.4c-.049.338-.086.577-.135.915h1.161c.609,0,.93.514.93,1.307v1.325l-.082-.043A.837.837,0,0,0,27,12.362H25c-.039.252-.085.581-.139.911H31.02c.211-.043.456-.081.667-.114a3.487,3.487,0,0,0,1.29.234,2.1,2.1,0,0,0,2.206-2.266,2.108,2.108,0,0,0-2.147-2.279" transform="translate(10.774 3.76)" fill="#27292d"/>
      <path id="Path_5174" data-name="Path 5174" d="M25.178,13.813h.057c1.337,0,1.961-.437,1.961-1.52a1.4,1.4,0,0,0-1.529-1.4H24.434a.529.529,0,0,1-.589-.561c0-.238.09-.534.7-.534h2.695c.057-.349.086-.569.139-.915h-2.8c-1.3,0-1.961.544-1.961,1.449s.57,1.362,1.529,1.362h1.233a.58.58,0,0,1,.589.6c0,.2-.09.616-.689.616h-.206L21.12,12.9H20.4c-.609,0-1.036-.343-1.036-1.14v-.547c0-.829.331-1.345,1.036-1.345h1.17c.053-.352.086-.574.135-.911h-1.6a2,2,0,0,0-2.048,2.185v.618a1.888,1.888,0,0,0,2.048,2.051h1.165l2.139,0h1.765Z" transform="translate(7.828 3.776)" fill="#27292d"/>
    </g>
  </g>
</svg>
