<svg xmlns="http://www.w3.org/2000/svg" width="12.968" height="11.159" viewBox="0 0 12.968 11.159">
  <path id="Style_Solid_Type_Rounded_2_" data-name="Style=Solid, Type=Rounded (2)" d="M7.543,3.4A7.711,7.711,0,0,1,10.75,2.75a8.6,8.6,0,0,1,1.91.209,1.9,1.9,0,0,1,1.239.779,2.42,2.42,0,0,1,.319,1.343v6.5a1.419,1.419,0,0,1-1.76,1.31A7.693,7.693,0,0,0,10.75,12.7a6.814,6.814,0,0,0-2.824.561,7.71,7.71,0,0,1-3.207.646A8.6,8.6,0,0,1,2.808,13.7a1.9,1.9,0,0,1-1.216-.757,2.387,2.387,0,0,1-.342-1.365v-6.5A1.419,1.419,0,0,1,3.01,3.77a7.694,7.694,0,0,0,1.709.186A6.814,6.814,0,0,0,7.543,3.4Zm2,4.934a1.81,1.81,0,1,1-1.81-1.81A1.809,1.809,0,0,1,9.544,8.329Zm-5.4.131a.452.452,0,0,1-.063.9q-.325-.023-.636-.068a.452.452,0,0,1,.13-.9Q3.854,8.44,4.147,8.46Zm7.875-1.1a.452.452,0,1,1-.13.9q-.277-.04-.57-.061a.452.452,0,0,1,.063-.9Q11.71,7.319,12.021,7.364Z" transform="translate(-1.25 -2.75)" fill="#045859" fill-rule="evenodd"/>
</svg>
