<svg id="Group_1489" data-name="Group 1489" xmlns="http://www.w3.org/2000/svg" width="13.09" height="15.999" viewBox="0 0 13.09 15.999">
  <g id="Group_451" data-name="Group 451" transform="translate(0 0)">
    <path id="Path_3457" data-name="Path 3457" d="M11.734,10.532a6.545,6.545,0,1,0-10.378,0L6.545,16Z" transform="translate(0 0)" fill="#045859"/>
    <path id="Path_3458" data-name="Path 3458" d="M18.79,18.3v2.063H17.584V14.5h2.284a2.638,2.638,0,0,1,1.16.241,1.776,1.776,0,0,1,.77.685,1.91,1.91,0,0,1,.269,1.011,1.681,1.681,0,0,1-.589,1.358,2.454,2.454,0,0,1-1.63.5Zm0-.977h1.077a1.059,1.059,0,0,0,.73-.225.819.819,0,0,0,.251-.643.964.964,0,0,0-.253-.7.947.947,0,0,0-.7-.274H18.79Z" transform="translate(-12.684 -10.463)" fill="#fff"/>
  </g>
</svg>
