<svg xmlns="http://www.w3.org/2000/svg" xmlns:xlink="http://www.w3.org/1999/xlink" width="16.087" height="19.764" viewBox="0 0 16.087 19.764">
  <defs>
    <clipPath id="clip-path">
      <rect id="Rectangle_2079" data-name="Rectangle 2079" width="16.087" height="19.764" fill="#87ba26"/>
    </clipPath>
    <clipPath id="clip-path-2">
      <rect id="Rectangle_2078" data-name="Rectangle 2078" width="10.572" height="14.249" fill="#87ba26"/>
    </clipPath>
  </defs>
  <g id="Group_1722" data-name="Group 1722" clip-path="url(#clip-path)">
    <g id="Group_1721" data-name="Group 1721" transform="translate(2.758)" style="mix-blend-mode: normal;isolation: isolate">
      <g id="Group_1720" data-name="Group 1720">
        <g id="Group_1719" data-name="Group 1719" clip-path="url(#clip-path-2)">
          <path id="Path_5189" data-name="Path 5189" d="M3,5.286a5.286,5.286,0,1,1,10.572,0V8.963A5.286,5.286,0,1,1,3,8.963Z" transform="translate(-3)" fill="#87ba26"/>
        </g>
      </g>
    </g>
    <path id="Path_5190" data-name="Path 5190" d="M.894,9a.888.888,0,0,1,.894.884,6.257,6.257,0,0,0,12.513,0,.894.894,0,0,1,1.787,0,7.99,7.99,0,0,1-7.15,7.907v.932h1.788a.884.884,0,1,1,0,1.768H5.362a.884.884,0,1,1,0-1.768H7.15v-.932A7.99,7.99,0,0,1,0,9.884.888.888,0,0,1,.894,9" transform="translate(0 -0.727)" fill="#87ba26" fill-rule="evenodd"/>
  </g>
</svg>
