<svg xmlns="http://www.w3.org/2000/svg" width="30" height="30" viewBox="0 0 30 30">
  <g id="Group_1607" data-name="Group 1607" transform="translate(-338 -512)">
    <g id="Group_1483" data-name="Group 1483" transform="translate(338 512)">
      <g id="Group_363" data-name="Group 363">
        <circle id="Ellipse_135" data-name="Ellipse 135" cx="15" cy="15" r="15" fill="#045859"/>
      </g>
    </g>
    <path id="Shape" d="M5.306,1.269a1.951,1.951,0,0,1,.6-.2,1.951,1.951,0,0,1,.6.2l3.219,1.3c.338.136.55.222.7.305a.546.546,0,0,1,.215.165.558.558,0,0,1,.074.265c.019.176.02.407.02.773v6.1a.537.537,0,0,0,1.073,0V4.047a8.528,8.528,0,0,0-.026-.862,1.6,1.6,0,0,0-.249-.746,1.592,1.592,0,0,0-.6-.512,8.379,8.379,0,0,0-.787-.345L6.833.249A2.513,2.513,0,0,0,5.9,0a2.513,2.513,0,0,0-.931.249L1.66,1.582a8.375,8.375,0,0,0-.787.345,1.592,1.592,0,0,0-.6.512,1.6,1.6,0,0,0-.249.746A8.518,8.518,0,0,0,0,4.047v6.123a.537.537,0,0,0,1.073,0v-6.1c0-.366,0-.6.02-.773a.558.558,0,0,1,.074-.265.546.546,0,0,1,.215-.165c.154-.083.367-.169.7-.305ZM6.14,3.706a9.043,9.043,0,0,1,1,.033A1.5,1.5,0,0,1,8.491,4.8a7.284,7.284,0,0,1,.228.777l.046.183.076.3A.961.961,0,0,1,9.608,7V8.647a.961.961,0,0,1-.961.961v.549a.549.549,0,0,1-1.1,0V9.608H4.255v.549a.549.549,0,1,1-1.1,0V9.608A.961.961,0,0,1,2.2,8.647V7a.961.961,0,0,1,.768-.941l.068-.273.007-.03a9.029,9.029,0,0,1,.274-.96,1.628,1.628,0,0,1,.511-.74,1.628,1.628,0,0,1,.842-.316,7.307,7.307,0,0,1,.81-.033H6.14ZM3.98,7.275a.547.547,0,0,0-.549.545v.007a.549.549,0,0,0,1.1,0V7.82A.547.547,0,0,0,3.98,7.275Zm3.843,0a.547.547,0,0,0-.549.545v.007a.549.549,0,0,0,1.1,0V7.82A.547.547,0,0,0,7.824,7.275ZM6.371,4.8H5.434a5.913,5.913,0,0,0-.637.025.559.559,0,0,0-.3.091.559.559,0,0,0-.16.266,8.394,8.394,0,0,0-.239.853H7.7a8.413,8.413,0,0,0-.239-.853A.559.559,0,0,0,7.3,4.92a.559.559,0,0,0-.3-.091A5.913,5.913,0,0,0,6.371,4.8Z" transform="translate(347.098 521.647)" fill="#fff" fill-rule="evenodd"/>
  </g>
</svg>
