<svg xmlns="http://www.w3.org/2000/svg" width="19.056" height="19.051" viewBox="0 0 19.056 19.051">
  <g id="Style_Bulk_Type_Rounded_8_" data-name="Style=Bulk, Type=Rounded (8)" transform="translate(-1.25 -1.25)">
    <path id="Path_4527" data-name="Path 4527" d="M17.165,15.247a.211.211,0,0,0,0-.3L7,4.78a.211.211,0,0,0-.3,0L4.391,7.087A30.336,30.336,0,0,0,2.274,9.331,4.167,4.167,0,0,0,1.3,11.336a4.356,4.356,0,0,0,.043,1.51,5.667,5.667,0,0,0,1.6,2.625,1.028,1.028,0,0,0,1.481.021,1.386,1.386,0,0,1,1.955.082,1.386,1.386,0,0,1,.082,1.955,1.028,1.028,0,0,0,.021,1.481,5.668,5.668,0,0,0,2.625,1.6,4.356,4.356,0,0,0,1.51.043,4.167,4.167,0,0,0,2-.978,30.328,30.328,0,0,0,2.244-2.117Z" transform="translate(0 -0.394)" fill="#045859"/>
    <path id="Path_4528" data-name="Path 4528" d="M13.31,1.339A4.357,4.357,0,0,0,11.8,1.3a4.167,4.167,0,0,0-2,.978c-.239.191-.489.412-.757.661-.185.172-.277.258-.279.371s.088.2.269.384l9.691,9.691c.181.181.271.271.384.269s.2-.094.371-.279c.249-.268.47-.518.661-.757a4.167,4.167,0,0,0,.978-2A4.356,4.356,0,0,0,21.07,9.1a5.669,5.669,0,0,0-1.6-2.625,1.027,1.027,0,0,0-1.48-.021,1.386,1.386,0,0,1-1.955-.082,1.386,1.386,0,0,1-.082-1.955,1.028,1.028,0,0,0-.021-1.481A5.669,5.669,0,0,0,13.31,1.339Z" transform="translate(-0.853)" fill="#045859"/>
  </g>
</svg>
