<svg xmlns="http://www.w3.org/2000/svg" xmlns:xlink="http://www.w3.org/1999/xlink" width="20.446" height="14.503" viewBox="0 0 20.446 14.503">
  <defs>
    <clipPath id="clip-path">
      <rect id="Rectangle_2054" data-name="Rectangle 2054" width="20.446" height="14.503" fill="#045859"/>
    </clipPath>
  </defs>
  <g id="Group_1611" data-name="Group 1611" transform="translate(-0.014 0.001)">
    <g id="Group_1582" data-name="Group 1582" transform="translate(0.014 -0.001)" clip-path="url(#clip-path)">
      <path id="Path_5183" data-name="Path 5183" d="M5.38,9.41a2.382,2.382,0,1,0,2.382,2.382A2.382,2.382,0,0,0,5.38,9.41" transform="translate(0.092 0.335)" fill="#045859"/>
      <path id="Path_5184" data-name="Path 5184" d="M19.82,2.887c-.111-.293-.238-.6-.381-.9h0a.089.089,0,0,1-.01-.042.1.1,0,0,1,.1-.1h0a.925.925,0,0,0,.931-.917h0A.923.923,0,0,0,19.533,0H10.778C10.1,0,9.532,0,9.057.042A3.721,3.721,0,0,0,7.65.414,5.7,5.7,0,0,0,5.542,2.59c-.112.174-.213.339-.311.5a7.424,7.424,0,0,1-1.052,1.45,4.989,4.989,0,0,1-1.734.828A3.507,3.507,0,0,0,.231,7.314,5.424,5.424,0,0,0,.016,9.282v.855a8.341,8.341,0,0,0,.042,1.079A1.806,1.806,0,0,0,.56,12.3a1.843,1.843,0,0,0,1.1.5.467.467,0,0,0,.132.008.186.186,0,0,0,.153-.149.64.64,0,0,0-.006-.154,3.521,3.521,0,0,1-.02-.377h0a3.566,3.566,0,1,1,7.132,0c0,.084,0,.169-.008.253-.017.227-.027.341.032.4s.163.06.37.06h1.591c.209,0,.314,0,.37-.06s.049-.174.032-.4c-.008-.084-.008-.168-.008-.253a3.566,3.566,0,1,1,7.131,0,.737.737,0,0,0,.007.151.19.19,0,0,0,.2.136.522.522,0,0,0,.122-.038,2.514,2.514,0,0,0,1.3-.972,1.806,1.806,0,0,0,.256-.789c.021-.212.021-.462.021-.707V5.5a5.2,5.2,0,0,0-.186-1.2,13.593,13.593,0,0,0-.454-1.418M12.137,4.565c0,.089,0,.135-.028.163s-.074.028-.163.028H6.715c-.16,0-.24,0-.264-.05s.018-.116.1-.251c.236-.371.551-.883.561-.9A3.956,3.956,0,0,1,8.509,2.043a1.871,1.871,0,0,1,.718-.172c.379-.035.867-.035,1.591-.035h1.129c.089,0,.135,0,.163.028s.028.072.028.163Zm6.226.114c-.057.078-.175.077-.409.077H14.232c-.089,0-.135,0-.163-.028s-.028-.074-.028-.163V2.026c0-.09,0-.135.028-.163s.074-.028.163-.028h2.906c.1,0,.1,0,.154.081a8.581,8.581,0,0,1,.788,1.616c.039.1.144.438.236.732.069.225.1.337.047.414" transform="translate(-0.014 0.001)" fill="#045859"/>
      <path id="Path_5185" data-name="Path 5185" d="M14.565,9.41a2.382,2.382,0,1,0,2.382,2.382A2.382,2.382,0,0,0,14.565,9.41" transform="translate(0.417 0.335)" fill="#045859"/>
    </g>
  </g>
</svg>
