<svg xmlns="http://www.w3.org/2000/svg" width="16.132" height="16.549" viewBox="0 0 16.132 16.549">
  <path id="elements_4_" data-name="elements (4)" d="M7.072,0A1.347,1.347,0,0,0,5.794.921L5.264,2.509l-.818.518L2.721,2.6a1.347,1.347,0,0,0-1.481.619L.189,4.985a1.347,1.347,0,0,0,.268,1.7L1.639,7.725v1.1L.457,9.864a1.347,1.347,0,0,0-.268,1.7L1.24,13.33a1.347,1.347,0,0,0,1.481.619l1.743-.431.732.41.477,1.648a1.347,1.347,0,0,0,1.294.972h2.18a1.347,1.347,0,0,0,1.294-.972l.477-1.648.731-.41,1.743.431a1.347,1.347,0,0,0,1.481-.619l1.07-1.8a1.347,1.347,0,0,0-.207-1.643l-1.22-1.215v-.8l1.22-1.215a1.347,1.347,0,0,0,.208-1.643l-1.07-1.8A1.347,1.347,0,0,0,13.392,2.6l-1.725.427-.819-.518L10.319.921A1.347,1.347,0,0,0,9.041,0Zm.983,10.968A2.694,2.694,0,1,0,5.361,8.274,2.694,2.694,0,0,0,8.055,10.968Z" fill="#045859" fill-rule="evenodd"/>
</svg>
