<svg id="Style_Bulk_Type_Rounded_5_" data-name="Style=Bulk, Type=Rounded (5)" xmlns="http://www.w3.org/2000/svg" width="16.091" height="13.098" viewBox="0 0 16.091 13.098">
  <path id="Path_4521" data-name="Path 4521" d="M11.583,4.25a23.929,23.929,0,0,1,2.907.1,3.154,3.154,0,0,1,1.92.831,3.154,3.154,0,0,1,.831,1.92,23.942,23.942,0,0,1,.1,2.907v1.58a23.943,23.943,0,0,1-.1,2.907,3.154,3.154,0,0,1-.831,1.92,3.154,3.154,0,0,1-1.92.831,23.943,23.943,0,0,1-2.907.1H7.009a23.942,23.942,0,0,1-2.907-.1,3.154,3.154,0,0,1-1.92-.831,3.154,3.154,0,0,1-.831-1.92,23.929,23.929,0,0,1-.1-2.907h0v-1.58h0a23.929,23.929,0,0,1,.1-2.907,3.154,3.154,0,0,1,.831-1.92A3.154,3.154,0,0,1,4.1,4.351a23.929,23.929,0,0,1,2.907-.1h4.574Z" transform="translate(-1.25 -4.25)" fill="#045859"/>
  <path id="Path_4522" data-name="Path 4522" d="M6.682,9a2.432,2.432,0,1,0,2.432,2.432A2.432,2.432,0,0,0,6.682,9Zm3.742,1.5H18.1a21.285,21.285,0,0,0-.083-2.245H9.676a.561.561,0,0,0-.467.873l.748,1.123A.561.561,0,0,0,10.425,10.5Z" transform="translate(-2.005 -5.256)" fill="#fff" fill-rule="evenodd"/>
</svg>
