<svg id="Group_406" data-name="Group 406" xmlns="http://www.w3.org/2000/svg" xmlns:xlink="http://www.w3.org/1999/xlink" width="16.822" height="18.548" viewBox="0 0 16.822 18.548">
  <defs>
    <clipPath id="clip-path">
      <rect id="Rectangle_1551" data-name="Rectangle 1551" width="16.822" height="18.548" fill="#161616"/>
    </clipPath>
    <clipPath id="clip-path-3">
      <rect id="Rectangle_1549" data-name="Rectangle 1549" width="14.234" height="5.991" fill="#045859"/>
    </clipPath>
  </defs>
  <g id="Group_405" data-name="Group 405" clip-path="url(#clip-path)">
    <g id="Group_404" data-name="Group 404" transform="translate(0 0)">
      <g id="Group_403" data-name="Group 403" clip-path="url(#clip-path)">
        <path id="Path_3439" data-name="Path 3439" d="M.83,4.027a.646.646,0,0,0-.83.62v7.858A17.273,17.273,0,0,0,.072,14.57a3.12,3.12,0,0,0,.594,1.568c.669.879,1.611,1.132,2.93,1.487l.151.041a44.726,44.726,0,0,0,7.2,1.259l.053.005a19.277,19.277,0,0,0,2.756.154,3.072,3.072,0,0,0,2.008-.763,3.158,3.158,0,0,0,.946-2,22.059,22.059,0,0,0,.113-2.943V11.551A25.236,25.236,0,0,0,16.73,8.7a3.28,3.28,0,0,0-.776-1.924,3.309,3.309,0,0,0-1.907-.918,27.176,27.176,0,0,0-2.956-.3l-.043,0A54.793,54.793,0,0,1,.83,4.027m.464,8.437V5.489a61.633,61.633,0,0,0,9.664,1.359,26.612,26.612,0,0,1,2.845.28,2.059,2.059,0,0,1,1.2.527,2.03,2.03,0,0,1,.442,1.2,24.779,24.779,0,0,1,.082,2.736v1.737a21.6,21.6,0,0,1-.1,2.806,1.889,1.889,0,0,1-.539,1.229,1.8,1.8,0,0,1-1.211.425,18.568,18.568,0,0,1-2.607-.155,43.475,43.475,0,0,1-6.987-1.22C2.55,16,2.07,15.846,1.7,15.355a1.854,1.854,0,0,1-.341-.95,16.744,16.744,0,0,1-.061-1.941m11.646-.053a.647.647,0,1,0-.647.647.647.647,0,0,0,.647-.647m-.647-1.941a1.941,1.941,0,1,1-1.941,1.941,1.941,1.941,0,0,1,1.941-1.941" transform="translate(0 -0.549)" fill="#045859" fill-rule="evenodd"/>
        <g id="Group_402" data-name="Group 402" transform="translate(0 0)" opacity="0.4" style="mix-blend-mode: normal;isolation: isolate">
          <g id="Group_401" data-name="Group 401">
            <g id="Group_400" data-name="Group 400" clip-path="url(#clip-path-3)">
              <path id="Path_3440" data-name="Path 3440" d="M12.5,1.657c-.308-.389-.748-.4-1.632-.321A42.96,42.96,0,0,0,2.039,2.965l-.19-.619.19.619a1.124,1.124,0,0,0-.744,1.1H0A2.415,2.415,0,0,1,1.659,1.728a44.267,44.267,0,0,1,9.1-1.681l.072-.006a2.809,2.809,0,0,1,2.687.813l-.506.4.506-.4a4.256,4.256,0,0,1,.72,2.646,10.423,10.423,0,0,1-.344,2.492l-1.251-.332a9.09,9.09,0,0,0,.3-2.167A3.019,3.019,0,0,0,12.5,1.657" transform="translate(0 0)" fill="#045859" fill-rule="evenodd"/>
            </g>
          </g>
        </g>
      </g>
    </g>
  </g>
</svg>
