<svg xmlns="http://www.w3.org/2000/svg" width="30" height="30" viewBox="0 0 30 30">
  <g id="Group_1608" data-name="Group 1608" transform="translate(-148 -512)">
    <g id="Group_1482" data-name="Group 1482" transform="translate(148 512)">
      <g id="Group_362" data-name="Group 362">
        <circle id="Ellipse_135" data-name="Ellipse 135" cx="15" cy="15" r="15" fill="#045859"/>
      </g>
    </g>
    <path id="elements" d="M12.877,2.52A9.794,9.794,0,0,0,6.544,0,9.794,9.794,0,0,0,.211,2.52a.595.595,0,1,0,.768.909A8.611,8.611,0,0,1,6.544,1.19a8.611,8.611,0,0,1,5.565,2.239.595.595,0,1,0,.768-.909ZM2.3,4.3a6.364,6.364,0,0,1,8.509.011.595.595,0,1,1-.788.891,5.176,5.176,0,0,0-6.959.011A.595.595,0,1,1,2.3,4.3ZM9.2,6.123a3.829,3.829,0,0,0-5.3,0,.595.595,0,0,0,.841.841,2.641,2.641,0,0,1,3.62,0A.595.595,0,1,0,9.2,6.123ZM6.544,7.436a.892.892,0,1,0,0,1.785h.007a.892.892,0,1,0,0-1.785Z" transform="translate(156 522)" fill="#fff" fill-rule="evenodd"/>
  </g>
</svg>
