<svg id="Group_323" data-name="Group 323" xmlns="http://www.w3.org/2000/svg" width="21.5" height="17.5" viewBox="0 0 21.5 17.5">
  <g id="Group_324" data-name="Group 324">
    <g id="Group_321" data-name="Group 321">
      <g id="Group_325" data-name="Group 325">
        <g id="Group_319" data-name="Group 319" transform="translate(0 4)" opacity="0.4" style="mix-blend-mode: normal;isolation: isolate">
          <g id="Group_318" data-name="Group 318">
            <g id="Group_326" data-name="Group 326">
              <path id="Path_3421" data-name="Path 3421" d="M9.52,4H5.98a17.39,17.39,0,0,0-1.88.06,2.7,2.7,0,0,0-1.45.56,2.73,2.73,0,0,0-.84,1.32,18.082,18.082,0,0,0-.43,1.83L1.01,9.62a1.8,1.8,0,0,0-.2.19,2.66,2.66,0,0,0-.73,1.65A18.224,18.224,0,0,0,0,13.7v3.05a.755.755,0,0,0,.75.75h1a.755.755,0,0,0,.75-.75V15.5H13v1.25a.755.755,0,0,0,.75.75h1a.755.755,0,0,0,.75-.75V13.7a18.224,18.224,0,0,0-.08-2.24,2.66,2.66,0,0,0-.73-1.65,1.8,1.8,0,0,0-.2-.19l-.37-1.85a18.082,18.082,0,0,0-.43-1.83,2.73,2.73,0,0,0-.84-1.32,2.7,2.7,0,0,0-1.45-.56A17.39,17.39,0,0,0,9.52,4M10.8,9H4.7c-.8,0-1.49,0-2.05.06l.19-.95a15.83,15.83,0,0,1,.4-1.7,1.237,1.237,0,0,1,.36-.63,1.274,1.274,0,0,1,.69-.23A15.96,15.96,0,0,1,6.03,5.5H9.47a16.166,16.166,0,0,1,1.75.05,1.266,1.266,0,0,1,.68.23,1.307,1.307,0,0,1,.37.63c.12.39.23.91.39,1.7l.19.95C12.29,9,11.6,9,10.8,9" transform="translate(0 -4)" fill="#1b8354" fill-rule="evenodd"/>
            </g>
          </g>
        </g>
        <path id="Path_3422" data-name="Path 3422" d="M11.98,0h3.54A17.39,17.39,0,0,1,17.4.06a2.7,2.7,0,0,1,1.45.56,2.685,2.685,0,0,1,.84,1.32,18.082,18.082,0,0,1,.43,1.83l.37,1.85c.07.06.14.12.2.18a2.71,2.71,0,0,1,.73,1.65A18.482,18.482,0,0,1,21.5,9.7v3.05a.755.755,0,0,1-.75.75h-1a.755.755,0,0,1-.75-.75V11.5H16.68a1.492,1.492,0,0,0-.02-.21,3.977,3.977,0,0,0-1.02-2.31l-.31-1.51a16.529,16.529,0,0,0-.45-1.92A4.2,4.2,0,0,0,14.66,5H16.8c.8,0,1.49,0,2.05.05l-.19-.94c-.16-.79-.27-1.31-.39-1.7a1.256,1.256,0,0,0-.37-.63,1.266,1.266,0,0,0-.68-.23,16.166,16.166,0,0,0-1.75-.05H12.03a15.96,15.96,0,0,0-1.74.05,1.274,1.274,0,0,0-.69.23,1.191,1.191,0,0,0-.36.63,2.315,2.315,0,0,0-.1.34H7.59c.07-.3.14-.57.22-.81A2.685,2.685,0,0,1,8.65.62,2.7,2.7,0,0,1,10.1.06,17.39,17.39,0,0,1,11.98,0m6.77,7.25a.755.755,0,1,1-.75.76.755.755,0,0,1,.75-.76M5.13,13.08a.763.763,0,0,1,.62-.33h4a.75.75,0,0,1,.62.33l.62.92H4.52Zm7.62-1.83a.755.755,0,1,1-.75.76.755.755,0,0,1,.75-.76m-9.25.74a.755.755,0,1,0,0,.01Z" fill="#1b8354" fill-rule="evenodd"/>
      </g>
    </g>
  </g>
</svg>
