<svg id="Group_555" data-name="Group 555" xmlns="http://www.w3.org/2000/svg" xmlns:xlink="http://www.w3.org/1999/xlink" width="21.841" height="15.492" viewBox="0 0 21.841 15.492">
  <defs>
    <clipPath id="clip-path">
      <rect id="Rectangle_1620" data-name="Rectangle 1620" width="21.841" height="15.492" fill="#1b8354"/>
    </clipPath>
    <clipPath id="clip-path-3">
      <rect id="Rectangle_1618" data-name="Rectangle 1618" width="21.841" height="13.714" fill="#1b8354"/>
    </clipPath>
  </defs>
  <g id="Group_547" data-name="Group 547" clip-path="url(#clip-path)">
    <g id="Group_546" data-name="Group 546" transform="translate(0)">
      <g id="Group_545" data-name="Group 545" clip-path="url(#clip-path)">
        <g id="Group_544" data-name="Group 544" transform="translate(0)" opacity="0.4" style="mix-blend-mode: normal;isolation: isolate">
          <g id="Group_543" data-name="Group 543">
            <g id="Group_542" data-name="Group 542" clip-path="url(#clip-path-3)">
              <path id="Path_3477" data-name="Path 3477" d="M20.749,2.117c.152.325.29.654.408.967A14.248,14.248,0,0,1,21.641,4.6a5.587,5.587,0,0,1,.2,1.279v4.7c0,.262,0,.528-.023.756a1.919,1.919,0,0,1-.273.843,2.689,2.689,0,0,1-1.386,1.038.56.56,0,0,1-.131.041.2.2,0,0,1-.21-.145.721.721,0,0,1-.008-.162,3.809,3.809,0,1,0-7.619,0c0,.09,0,.181.009.27.017.242.025.363-.035.428s-.172.064-.4.064h-1.7c-.223,0-.335,0-.4-.064s-.052-.186-.035-.428c.006-.089.009-.18.009-.27a3.809,3.809,0,1,0-7.619,0,3.755,3.755,0,0,0,.021.4.664.664,0,0,1,.007.165.2.2,0,0,1-.164.159.5.5,0,0,1-.14-.009A1.969,1.969,0,0,1,.582,13.14a1.926,1.926,0,0,1-.536-1.159A9.037,9.037,0,0,1,0,10.829V9.915a5.8,5.8,0,0,1,.231-2.1A3.743,3.743,0,0,1,2.595,5.729a5.324,5.324,0,0,0,1.853-.889A7.913,7.913,0,0,0,5.571,3.288c.1-.169.212-.344.33-.53A6.092,6.092,0,0,1,8.155.443a3.964,3.964,0,0,1,1.5-.4C10.166,0,10.774,0,11.5,0h9.352a.987.987,0,0,1,.992.979.987.987,0,0,1-.992.98.105.105,0,0,0-.1.157" transform="translate(0)" fill="#1b8354"/>
            </g>
          </g>
        </g>
        <path id="Path_3478" data-name="Path 3478" d="M10.414,1.93c-.777,0-1.3,0-1.7.038a1.99,1.99,0,0,0-.767.184A4.223,4.223,0,0,0,6.459,3.768c-.011.017-.347.565-.6.961-.091.144-.136.215-.108.268s.114.053.282.053h5.589c.1,0,.143,0,.174-.029s.029-.078.029-.174V2.133c0-.1,0-.144-.029-.174s-.078-.029-.174-.029Zm3.444.2c0-.1,0-.144.029-.174s.078-.029.174-.029h3.1c.1,0,.11,0,.165.086a9.133,9.133,0,0,1,.842,1.727c.042.109.154.468.252.782.074.24.111.36.05.442s-.186.082-.437.082H14.061c-.1,0-.144,0-.174-.029s-.029-.078-.029-.174ZM12.334,12.921a2.54,2.54,0,1,0,2.54-2.54,2.539,2.539,0,0,0-2.54,2.54m-10.158,0a2.54,2.54,0,1,0,2.54-2.54,2.539,2.539,0,0,0-2.54,2.54" transform="translate(1.126 0.031)" fill="#1b8354" fill-rule="evenodd"/>
      </g>
    </g>
  </g>
</svg>
