<svg xmlns="http://www.w3.org/2000/svg" width="13.961" height="12.159" viewBox="0 0 13.961 12.159">
  <g id="Group_323" data-name="Group 323" transform="translate(-1.539 -4)">
    <g id="Group_324" data-name="Group 324" transform="translate(1.539)">
      <g id="Group_321" data-name="Group 321" transform="translate(0 4)">
        <g id="Group_325" data-name="Group 325">
          <g id="Group_319" data-name="Group 319" style="mix-blend-mode: normal;isolation: isolate">
            <g id="Group_318" data-name="Group 318">
              <g id="Group_326" data-name="Group 326">
                <path id="Path_3421" data-name="Path 3421" d="M8.574,4H5.386a15.663,15.663,0,0,0-1.693.054,2.434,2.434,0,0,0-1.306.5A2.459,2.459,0,0,0,1.63,5.747,16.286,16.286,0,0,0,1.243,7.4L.91,9.062a1.619,1.619,0,0,0-.18.171,2.4,2.4,0,0,0-.657,1.486A16.414,16.414,0,0,0,0,12.737v2.747a.68.68,0,0,0,.676.676h.9a.68.68,0,0,0,.676-.676V14.358h9.457v1.126a.68.68,0,0,0,.676.676h.9a.68.68,0,0,0,.676-.676V12.737a16.414,16.414,0,0,0-.072-2.018,2.4,2.4,0,0,0-.657-1.486,1.618,1.618,0,0,0-.18-.171L12.718,7.4a16.286,16.286,0,0,0-.387-1.648,2.459,2.459,0,0,0-.757-1.189,2.434,2.434,0,0,0-1.306-.5A15.663,15.663,0,0,0,8.574,4M9.727,8.5H4.233c-.721,0-1.342,0-1.846.054L2.558,7.7a14.258,14.258,0,0,1,.36-1.531A1.114,1.114,0,0,1,3.242,5.6,1.148,1.148,0,0,1,3.864,5.4a14.375,14.375,0,0,1,1.567-.045h3.1a14.56,14.56,0,0,1,1.576.045,1.14,1.14,0,0,1,.612.207,1.177,1.177,0,0,1,.333.567c.108.351.207.82.351,1.531l.171.856c-.5-.054-1.126-.054-1.846-.054" transform="translate(0 -4)" fill="#045859" fill-rule="evenodd"/>
              </g>
            </g>
          </g>
          <path id="Path_3422" data-name="Path 3422" d="M4.819,12.9a.687.687,0,0,1,.558-.3h3.6a.675.675,0,0,1,.558.3l.558.829H4.27Zm6.863-1.648a.68.68,0,1,1-.676.685.68.68,0,0,1,.676-.685m-8.331.667a.68.68,0,1,0,0,.009Z" transform="translate(-0.199 -4.719)" fill="#fefefd" fill-rule="evenodd"/>
        </g>
      </g>
    </g>
  </g>
</svg>
