<svg id="Group_1509" data-name="Group 1509" xmlns="http://www.w3.org/2000/svg" xmlns:xlink="http://www.w3.org/1999/xlink" width="18.476" height="18.475" viewBox="0 0 18.476 18.475">
  <defs>
    <clipPath id="clip-path">
      <rect id="Rectangle_1547" data-name="Rectangle 1547" width="18.476" height="18.475" fill="#fff"/>
    </clipPath>
    <clipPath id="clip-path-2">
      <rect id="Rectangle_1546" data-name="Rectangle 1546" width="4.726" height="1.289" fill="#fff"/>
    </clipPath>
  </defs>
  <g id="Group_789" data-name="Group 789">
    <g id="Group_1509-2" data-name="Group 1509">
      <g id="Group_397" data-name="Group 397">
        <g id="Group_396" data-name="Group 396" clip-path="url(#clip-path)">
          <g id="Group_395" data-name="Group 395" transform="translate(6.875 13.749)" opacity="0.4" style="mix-blend-mode: normal;isolation: isolate">
            <g id="Group_394" data-name="Group 394">
              <g id="Group_393" data-name="Group 393" clip-path="url(#clip-path-2)">
                <path id="Path_3437" data-name="Path 3437" d="M8,16.644A.645.645,0,0,1,8.644,16h3.437a.644.644,0,1,1,0,1.289H8.644A.645.645,0,0,1,8,16.644" transform="translate(-8 -16)" fill="#fff" fill-rule="evenodd"/>
              </g>
            </g>
          </g>
          <path id="Path_3438" data-name="Path 3438" d="M7.741,1.765A28.025,28.025,0,0,0,5.336,3.4L4.1,4.3C3.261,4.9,2.671,5.329,2.24,5.712a2.772,2.772,0,0,0-.783.986A2.655,2.655,0,0,0,1.3,7.919c.027.561.134,1.263.288,2.263l.259,1.683a27.567,27.567,0,0,0,.591,3.172A2.749,2.749,0,0,0,3.266,16.5a2.98,2.98,0,0,0,1.644.586,30.818,30.818,0,0,0,3.349.1h1.958a30.818,30.818,0,0,0,3.349-.1,2.98,2.98,0,0,0,1.644-.586,2.749,2.749,0,0,0,.833-1.463,27.566,27.566,0,0,0,.591-3.172l.259-1.683c.154-1,.261-1.7.288-2.263A2.655,2.655,0,0,0,17.018,6.7a2.772,2.772,0,0,0-.783-.986c-.431-.382-1.021-.81-1.86-1.416L13.139,3.4a28.025,28.025,0,0,0-2.4-1.636,2.985,2.985,0,0,0-1.5-.476,2.985,2.985,0,0,0-1.5.476M7.11.641A4.255,4.255,0,0,1,9.238,0a4.255,4.255,0,0,1,2.128.641,28.463,28.463,0,0,1,2.5,1.692l1.3.938c.805.582,1.448,1.047,1.933,1.477A4.057,4.057,0,0,1,18.2,6.191a3.924,3.924,0,0,1,.264,1.79c-.031.637-.15,1.4-.3,2.362L17.9,12.107a28.265,28.265,0,0,1-.62,3.289,4.009,4.009,0,0,1-1.246,2.1,4.24,4.24,0,0,1-2.313.875,31.366,31.366,0,0,1-3.461.109H8.216a31.366,31.366,0,0,1-3.461-.109,4.24,4.24,0,0,1-2.313-.875A4.009,4.009,0,0,1,1.2,15.4a28.265,28.265,0,0,1-.62-3.289L.3,10.343C.157,9.386.039,8.618.008,7.981a3.924,3.924,0,0,1,.264-1.79A4.057,4.057,0,0,1,1.384,4.748c.485-.431,1.127-.9,1.933-1.477l1.3-.938A28.463,28.463,0,0,1,7.11.641" transform="translate(0 0)" fill="#fff" fill-rule="evenodd"/>
        </g>
      </g>
    </g>
  </g>
</svg>
