<svg xmlns="http://www.w3.org/2000/svg" xmlns:xlink="http://www.w3.org/1999/xlink" width="94.979" height="105.42" viewBox="0 0 94.979 105.42">
  <defs>
    <filter id="Path_3457" x="0" y="0" width="94.979" height="105.42" filterUnits="userSpaceOnUse">
      <feOffset dy="3" input="SourceAlpha"/>
      <feGaussianBlur stdDeviation="8" result="blur"/>
      <feFlood flood-opacity="0.329"/>
      <feComposite operator="in" in2="blur"/>
      <feComposite in="SourceGraphic"/>
    </filter>
  </defs>
  <g id="Group_781" data-name="Group 781" transform="translate(24 21)">
    <g id="Group_451" data-name="Group 451">
      <g transform="matrix(1, 0, 0, 1, -24, -21)" filter="url(#Path_3457)">
        <path id="Path_3457-2" data-name="Path 3457" d="M42.112,37.8a23.49,23.49,0,1,0-37.244,0L23.49,57.42Z" transform="translate(24 21)" fill="#1b8354"/>
      </g>
      <path id="Path_3458" data-name="Path 3458" d="M21.913,28.111v7.4H17.584V14.5h8.2a9.468,9.468,0,0,1,4.163.866,6.373,6.373,0,0,1,2.763,2.46,6.856,6.856,0,0,1,.967,3.628,6.033,6.033,0,0,1-2.114,4.872,8.808,8.808,0,0,1-5.851,1.781Zm0-3.507H25.78A3.8,3.8,0,0,0,28.4,23.8a2.94,2.94,0,0,0,.9-2.309,3.461,3.461,0,0,0-.909-2.5,3.4,3.4,0,0,0-2.511-.982H21.913Z" fill="#fff"/>
    </g>
  </g>
</svg>
