<svg xmlns="http://www.w3.org/2000/svg" width="18.083" height="18.083" viewBox="0 0 18.083 18.083">
  <path id="Style_Solid_Type_Sharp" data-name="Style=Solid, Type=Sharp" d="M2.25,2.25V8.51H8.51V2.25Zm18.083,9.969H12.219v1.855H10.364V11.292a.927.927,0,0,1,.927-.927h9.042Zm-9.969,3.709v2.782h1.855V15.929Zm9.042-3.014H16.624v1.855h1.855v3.709H16.624v1.855h2.782a.927.927,0,0,0,.927-.927V13.842A.927.927,0,0,0,19.406,12.915Zm-4.637.927H12.915v3.246H15.7v.464h1.855V15.233H14.769Zm0,4.637H12.915v1.855h1.855Zm-.7-9.969V2.25h6.26V8.51ZM2.25,14.074v6.26H8.51v-6.26Zm6.26-1.855H2.25V10.364H8.51ZM10.364,2.25V8.51h1.855V2.25Z" transform="translate(-2.25 -2.25)" fill="#fff" fill-rule="evenodd"/>
</svg>
