<svg id="Group_536" data-name="Group 536" xmlns="http://www.w3.org/2000/svg" xmlns:xlink="http://www.w3.org/1999/xlink" width="18.574" height="19.459" viewBox="0 0 18.574 19.459">
  <defs>
    <clipPath id="clip-path">
      <rect id="Rectangle_1607" data-name="Rectangle 1607" width="12.383" height="15.257" fill="#fff"/>
    </clipPath>
  </defs>
  <g id="Group_1537" data-name="Group 1537">
    <g id="Group_540" data-name="Group 540">
      <g id="Group_1538" data-name="Group 1538">
        <path id="Path_3475" data-name="Path 3475" d="M10.2,1H8.377a31.931,31.931,0,0,0-4.207.159A4.493,4.493,0,0,0,1.343,2.482a5.092,5.092,0,0,0-1.2,2.984A40.386,40.386,0,0,0,0,10v.577a40.386,40.386,0,0,0,.145,4.533,5.093,5.093,0,0,0,1.2,2.984A4.493,4.493,0,0,0,4.17,19.415a31.931,31.931,0,0,0,4.207.159H10.2a31.931,31.931,0,0,0,4.207-.159,4.493,4.493,0,0,0,2.828-1.322,5.092,5.092,0,0,0,1.2-2.984,40.386,40.386,0,0,0,.145-4.533V10a40.386,40.386,0,0,0-.145-4.533,5.092,5.092,0,0,0-1.2-2.984A4.493,4.493,0,0,0,14.4,1.159,31.931,31.931,0,0,0,10.2,1M2.652,7.191c-.406,0-.609,0-.738.127s-.132.328-.137.728c-.008.6-.008,1.262-.008,2.013v.455A39.7,39.7,0,0,0,1.9,14.89a3.378,3.378,0,0,0,.74,2,2.766,2.766,0,0,0,1.784.773,31.376,31.376,0,0,0,4.022.141h1.681a31.376,31.376,0,0,0,4.022-.141,2.766,2.766,0,0,0,1.784-.773,3.378,3.378,0,0,0,.74-2,39.7,39.7,0,0,0,.132-4.376V10.06c0-.751,0-1.417-.008-2.013-.005-.4-.008-.6-.137-.728s-.332-.127-.738-.127Z" transform="translate(0 -0.116)" fill="#fff" fill-rule="evenodd"/>
        <g id="Group_538" data-name="Group 538" transform="translate(3.096)">
          <g id="Group_537" data-name="Group 537">
            <g id="Group_536-2" data-name="Group 536" clip-path="url(#clip-path)">
              <path id="Path_3476" data-name="Path 3476" d="M4.384,0a.885.885,0,0,1,.884.884V.966Q4.9,1,4.575,1.044A6.7,6.7,0,0,0,3.5,1.282v-.4A.885.885,0,0,1,4.384,0M14.808,1.044a6.7,6.7,0,0,1,1.075.238v-.4a.884.884,0,0,0-1.769,0V.966q.365.031.694.078M6.153,9.508a1.106,1.106,0,1,0,0,2.211h.008a1.106,1.106,0,0,0,0-2.211Zm3.534,0a1.106,1.106,0,1,0,0,2.211h.007a1.106,1.106,0,0,0,0-2.211Zm3.534,0a1.106,1.106,0,0,0,0,2.211h.008a1.106,1.106,0,1,0,0-2.211ZM6.153,13.046a1.106,1.106,0,1,0,0,2.211h.008a1.106,1.106,0,0,0,0-2.211Zm3.534,0a1.106,1.106,0,1,0,0,2.211h.007a1.106,1.106,0,1,0,0-2.211Z" transform="translate(-3.5)" fill="#fff" fill-rule="evenodd"/>
            </g>
          </g>
        </g>
      </g>
    </g>
  </g>
</svg>
