<svg xmlns="http://www.w3.org/2000/svg" xmlns:xlink="http://www.w3.org/1999/xlink" width="30" height="30" viewBox="0 0 30 30">
  <defs>
    <clipPath id="clip-path">
      <rect id="Rectangle_1528" data-name="Rectangle 1528" width="12.029" height="12.031" fill="#085d3a"/>
    </clipPath>
    <clipPath id="clip-path-2">
      <rect id="Rectangle_1527" data-name="Rectangle 1527" width="12.028" height="12.031" fill="#085d3a"/>
    </clipPath>
  </defs>
  <g id="Group_363" data-name="Group 363" transform="translate(0 0.128)">
    <circle id="Ellipse_135" data-name="Ellipse 135" cx="15" cy="15" r="15" transform="translate(0 -0.128)" fill="#abefc6"/>
    <g id="Group_368" data-name="Group 368" transform="translate(8.986 8.857)">
      <g id="Group_367" data-name="Group 367" clip-path="url(#clip-path)">
        <path id="Path_3432" data-name="Path 3432" d="M11.668,3h-1.22a5.58,5.58,0,0,0-.681.025,1.028,1.028,0,0,0-.61.276,1.021,1.021,0,0,0-.276.61,5.909,5.909,0,0,0-.023.676V5.814a5.909,5.909,0,0,0,.023.676.948.948,0,0,0,.886.886,5.58,5.58,0,0,0,.681.025h1.22a5.58,5.58,0,0,0,.681-.025.948.948,0,0,0,.886-.886,5.909,5.909,0,0,0,.023-.676v-1.2a6.4,6.4,0,0,0-.023-.7,1.021,1.021,0,0,0-.276-.61,1.028,1.028,0,0,0-.61-.276A5.58,5.58,0,0,0,11.668,3m2.324,9.682a.588.588,0,0,0-.587-.587H8.711a.587.587,0,1,0,0,1.174H13.4a.588.588,0,0,0,.587-.587M6.07,8.868a.444.444,0,0,1,.329.146v0c.029.032.106.12.147.172.088.1.205.251.323.414a3.985,3.985,0,0,1,.334.537,1.466,1.466,0,0,1,.188.635,1.32,1.32,0,0,1-2.64,0,1.466,1.466,0,0,1,.188-.635A3.985,3.985,0,0,1,5.272,9.6c.117-.163.235-.309.323-.414.041-.052.117-.14.147-.172v0a.444.444,0,0,1,.329-.146" transform="translate(-4.75 -1.24)" fill="#085d3a" fill-rule="evenodd"/>
        <g id="Group_366" data-name="Group 366" transform="translate(0 0)" opacity="0.4" style="mix-blend-mode: normal;isolation: isolate">
          <g id="Group_365" data-name="Group 365" transform="translate(0 0)">
            <g id="Group_364" data-name="Group 364" clip-path="url(#clip-path-2)">
              <path id="Path_3433" data-name="Path 3433" d="M4.671,0H7.758c.334,0,.627,0,.868.026a1.69,1.69,0,0,1,.763.245,1.711,1.711,0,0,1,.54.59c.117.21.241.476.376.777l1.678,3.735a.564.564,0,0,1-.288.739.572.572,0,0,1-.751-.284L9.283,2.118l-.042-.092c-.129-.281-.213-.466-.293-.6a.549.549,0,0,0-.176-.212.577.577,0,0,0-.264-.071c-.176-.019-.411-.019-.78-.019H6.895V2.494a.587.587,0,0,1-1.174,0V1.12H4.671a.56.56,0,1,1,0-1.12M7.628,6.72v4.871a.442.442,0,0,1-.44.44H5.428a.442.442,0,0,1-.44-.44V6.75h1.8a7.125,7.125,0,0,0,.839-.03M2.641,5.281h.593c-.006-.167-.006-.35-.006-.542V3.182c0-.192,0-.374.006-.542H2.2A2.2,2.2,0,0,0,0,4.841V6.308a.442.442,0,0,0,.44.44H2.2a.442.442,0,0,0,.44-.44Z" transform="translate(-0.001 0)" fill="#085d3a" fill-rule="evenodd"/>
            </g>
          </g>
        </g>
      </g>
    </g>
  </g>
</svg>
