<svg xmlns="http://www.w3.org/2000/svg" xmlns:xlink="http://www.w3.org/1999/xlink" width="30" height="30" viewBox="0 0 30 30">
  <defs>
    <clipPath id="clip-path">
      <rect id="Rectangle_1599" data-name="Rectangle 1599" width="18.19" height="14.388" fill="none"/>
    </clipPath>
    <clipPath id="clip-path-2">
      <rect id="Rectangle_1598" data-name="Rectangle 1598" width="18.191" height="14.389" fill="none"/>
    </clipPath>
    <clipPath id="clip-path-3">
      <rect id="Rectangle_1588" data-name="Rectangle 1588" width="1.42" height="2.319" fill="none"/>
    </clipPath>
    <clipPath id="clip-path-5">
      <rect id="Rectangle_1590" data-name="Rectangle 1590" width="1.624" height="2.303" fill="none"/>
    </clipPath>
    <clipPath id="clip-path-6">
      <rect id="Rectangle_1591" data-name="Rectangle 1591" width="1.618" height="2.282" fill="none"/>
    </clipPath>
    <clipPath id="clip-path-7">
      <rect id="Rectangle_1592" data-name="Rectangle 1592" width="1.267" height="2.387" fill="none"/>
    </clipPath>
    <clipPath id="clip-path-8">
      <rect id="Rectangle_1593" data-name="Rectangle 1593" width="1.767" height="2.355" fill="none"/>
    </clipPath>
    <clipPath id="clip-path-9">
      <rect id="Rectangle_1594" data-name="Rectangle 1594" width="1.731" height="2.278" fill="none"/>
    </clipPath>
    <clipPath id="clip-path-10">
      <rect id="Rectangle_1595" data-name="Rectangle 1595" width="1.416" height="2.285" fill="none"/>
    </clipPath>
    <clipPath id="clip-path-12">
      <rect id="Rectangle_1597" data-name="Rectangle 1597" width="1.434" height="2.38" fill="none"/>
    </clipPath>
  </defs>
  <g id="Group_363" data-name="Group 363" transform="translate(0 0.128)">
    <circle id="Ellipse_135" data-name="Ellipse 135" cx="15" cy="15" r="15" transform="translate(0 -0.128)" fill="#abefc6"/>
    <g id="Group_470" data-name="Group 470" transform="translate(6.546 6.306)">
      <g id="Group_502" data-name="Group 502" clip-path="url(#clip-path)">
        <g id="Group_501" data-name="Group 501" transform="translate(0 -0.001)">
          <g id="Group_500" data-name="Group 500" clip-path="url(#clip-path-2)">
            <g id="Group_472" data-name="Group 472" transform="translate(4.126 8.384)" opacity="0.4">
              <g id="Group_471" data-name="Group 471">
                <g id="Group_470-2" data-name="Group 470" clip-path="url(#clip-path-3)">
                  <path id="Path_3461" data-name="Path 3461" d="M4.031,6.407a.6.6,0,0,0-.643.435L3.158,8.03a.6.6,0,0,0,1.186.23l.228-1.186-.005-.005a.6.6,0,0,0-.535-.662" transform="translate(-3.151 -6.403)" fill="#085d3a"/>
                </g>
              </g>
            </g>
            <g id="Group_475" data-name="Group 475" transform="translate(3.531 11.152)" opacity="0.4">
              <g id="Group_474" data-name="Group 474">
                <g id="Group_473" data-name="Group 473" clip-path="url(#clip-path-3)">
                  <path id="Path_3462" data-name="Path 3462" d="M3.577,8.521a.6.6,0,0,0-.643.435L2.7,10.144a.6.6,0,0,0,1.186.23l.228-1.186-.005-.005a.6.6,0,0,0-.535-.662" transform="translate(-2.697 -8.517)" fill="#085d3a"/>
                </g>
              </g>
            </g>
            <g id="Group_478" data-name="Group 478" transform="translate(1.296 8.07)" opacity="0.4">
              <g id="Group_477" data-name="Group 477">
                <g id="Group_476" data-name="Group 476" clip-path="url(#clip-path-5)">
                  <path id="Path_3463" data-name="Path 3463" d="M2.216,6.2a.6.6,0,0,0-.763.34L1.022,7.667A.6.6,0,0,0,2.149,8.1L2.577,7V6.971A.6.6,0,0,0,2.216,6.2" transform="translate(-0.99 -6.163)" fill="#085d3a"/>
                </g>
              </g>
            </g>
            <path id="Path_3464" data-name="Path 3464" d="M1.929,7.3H14.373a.33.33,0,0,0,.33-.33V5.9a.33.33,0,0,0-.321-.339H12.827L12.745,5.5A4.643,4.643,0,0,0,8.817,1.516V.844a.733.733,0,0,0-.61-.838L8.154,0a.735.735,0,0,0-.693.774A.638.638,0,0,0,7.47.846v.744A4.4,4.4,0,0,0,4.007,5.566H1.921A.33.33,0,0,0,1.6,5.9h0V6.968a.33.33,0,0,0,.33.33" transform="translate(0.494 0.001)" fill="#085d3a"/>
            <g id="Group_481" data-name="Group 481" transform="translate(0 11.471)" opacity="0.4">
              <g id="Group_480" data-name="Group 480">
                <g id="Group_479" data-name="Group 479" clip-path="url(#clip-path-6)">
                  <path id="Path_3465" data-name="Path 3465" d="M1.2,8.791a.6.6,0,0,0-.741.334L.039,10.252H.03a.6.6,0,0,0,1.127.428l.431-1.127A.6.6,0,0,0,1.2,8.791" transform="translate(0 -8.762)" fill="#085d3a"/>
                </g>
              </g>
            </g>
            <g id="Group_484" data-name="Group 484" transform="translate(7.823 12.002)" opacity="0.4">
              <g id="Group_483" data-name="Group 483">
                <g id="Group_482" data-name="Group 482" clip-path="url(#clip-path-7)">
                  <path id="Path_3466" data-name="Path 3466" d="M6.649,9.166a.6.6,0,0,0-.609.547l-.064,1.206a.6.6,0,1,0,1.206.062l.06-1.2a.6.6,0,0,0-.593-.611" transform="translate(-5.975 -9.166)" fill="#085d3a"/>
                </g>
              </g>
            </g>
            <g id="Group_487" data-name="Group 487" transform="translate(14.861 7.993)" opacity="0.4">
              <g id="Group_486" data-name="Group 486">
                <g id="Group_485" data-name="Group 485" clip-path="url(#clip-path-8)">
                  <path id="Path_3467" data-name="Path 3467" d="M13.068,7.617c-.008-.018-.017-.037-.026-.054l-.53-1.108a.609.609,0,1,0-1.1.515l.021.041.53,1.083a.6.6,0,0,0,1.109-.477" transform="translate(-11.35 -6.105)" fill="#085d3a"/>
                </g>
              </g>
            </g>
            <g id="Group_490" data-name="Group 490" transform="translate(16.459 11.24)" opacity="0.4">
              <g id="Group_489" data-name="Group 489">
                <g id="Group_488" data-name="Group 488" clip-path="url(#clip-path-9)">
                  <path id="Path_3468" data-name="Path 3468" d="M14.255,10.021l-.53-1.083a.6.6,0,0,0-1.1.5c.007.014.014.029.022.043l.524,1.083v-.012a.6.6,0,0,0,1.085-.53" transform="translate(-12.571 -8.584)" fill="#085d3a"/>
                </g>
              </g>
            </g>
            <g id="Group_493" data-name="Group 493" transform="translate(12.556 11.171)" opacity="0.4">
              <g id="Group_492" data-name="Group 492">
                <g id="Group_491" data-name="Group 491" clip-path="url(#clip-path-10)">
                  <path id="Path_3469" data-name="Path 3469" d="M10.772,8.972a.6.6,0,0,0-1.178.23l.23,1.178A.6.6,0,0,0,11,10.155l-.23-1.178Z" transform="translate(-9.59 -8.532)" fill="#085d3a"/>
                </g>
              </g>
            </g>
            <g id="Group_496" data-name="Group 496" transform="translate(7.989 9.121)" opacity="0.4">
              <g id="Group_495" data-name="Group 495">
                <g id="Group_494" data-name="Group 494" clip-path="url(#clip-path-7)">
                  <path id="Path_3470" data-name="Path 3470" d="M6.776,6.966a.6.6,0,0,0-.609.547L6.1,8.719a.6.6,0,0,0,1.206.062l.06-1.2a.6.6,0,0,0-.593-.611" transform="translate(-6.102 -6.966)" fill="#085d3a"/>
                </g>
              </g>
            </g>
            <g id="Group_499" data-name="Group 499" transform="translate(11.944 8.288)" opacity="0.4">
              <g id="Group_498" data-name="Group 498">
                <g id="Group_497" data-name="Group 497" clip-path="url(#clip-path-12)">
                  <path id="Path_3471" data-name="Path 3471" d="M10.121,8.687a.6.6,0,0,0,.433-.639l-.23-1.178V6.864A.6.6,0,0,0,9.127,7a.749.749,0,0,0,.018.094l.23,1.178a.6.6,0,0,0,.745.414" transform="translate(-9.123 -6.33)" fill="#085d3a"/>
                </g>
              </g>
            </g>
          </g>
        </g>
      </g>
    </g>
  </g>
</svg>
