<svg xmlns="http://www.w3.org/2000/svg" width="71.084" height="49.871" viewBox="0 0 71.084 49.871">
  <g id="Group_998" data-name="Group 998" transform="translate(-0.192 -0.192)">
    <g id="Group_1000" data-name="Group 1000" transform="translate(0.734 0.734)">
      <path id="Path_3635" data-name="Path 3635" d="M7.967.543H63.118a7.425,7.425,0,0,1,7.424,7.424V41.9a7.425,7.425,0,0,1-7.424,7.424H7.967A7.423,7.423,0,0,1,.543,41.9V7.967A7.423,7.423,0,0,1,7.967.543" transform="translate(-0.542 -0.542)" fill="#fff"/>
      <rect id="Rectangle_1826" data-name="Rectangle 1826" width="69.999" height="48.786" rx="3.798" fill="none" stroke="#e5e7eb" stroke-width="1.085"/>
      <path id="Path_3636" data-name="Path 3636" d="M22.642,18.723V10.756H24v.637a2.177,2.177,0,0,1,1.776-.792,2.746,2.746,0,0,1,2.672,3.019,2.769,2.769,0,0,1-2.672,3.04A2.177,2.177,0,0,1,24,15.853v2.87ZM24,12.885v1.469a1.669,1.669,0,0,0,1.541,1.028c.9,0,1.5-.668,1.5-1.769s-.6-1.748-1.5-1.748A1.651,1.651,0,0,0,24,12.885" transform="translate(20.701 9.206)" fill="#02aa7c"/>
      <path id="Path_3637" data-name="Path 3637" d="M26.184,14.784a1.7,1.7,0,0,1,1.6-1.771l2.3-.294v-.285a.463.463,0,0,0-.5-.53H26.7V10.678h2.938c1.167,0,1.807.571,1.807,1.586v4.151H30.076v-.7a2.212,2.212,0,0,1-1.9.873,1.81,1.81,0,0,1-2-1.807m2.327.705a1.686,1.686,0,0,0,1.565-.962v-.72l-1.756.241c-.485.066-.756.324-.756.743,0,.447.345.7.947.7" transform="translate(24.089 9.235)" fill="#02aa7c"/>
      <path id="Path_3638" data-name="Path 3638" d="M29.613,17.427H30.6a.626.626,0,0,0,.669-.507l.175-.505-2.086-5.737h1.411l1.3,3.994h.03l1.241-3.994h1.388l-2.284,6.587c-.309.9-.72,1.388-1.727,1.388h-1.1Z" transform="translate(27.451 9.277)" fill="#02aa7c"/>
      <path id="Path_3639" data-name="Path 3639" d="M9.954,24.085a5.26,5.26,0,0,0,3.715-1.314A3.4,3.4,0,0,0,14.684,20.3a3.193,3.193,0,0,0-.941-2.3,4.909,4.909,0,0,0-2.586-1.269L9.35,16.379c-.749-.14-1.175-.513-1.175-1.035,0-.683.662-1.152,1.718-1.152a2.239,2.239,0,0,1,1.6.587,1.789,1.789,0,0,1,.447.962l2.608-.587A3.223,3.223,0,0,0,13.59,13.2a5.277,5.277,0,0,0-3.725-1.38A5.1,5.1,0,0,0,6.4,13.038,3.443,3.443,0,0,0,5.3,15.58a2.92,2.92,0,0,0,.845,2.159,5.142,5.142,0,0,0,2.469,1.248l1.784.428c.9.211,1.294.543,1.294,1.13,0,.726-.662,1.152-1.741,1.152a2.428,2.428,0,0,1-1.809-.681,1.649,1.649,0,0,1-.47-1.081L5,20.523a3.348,3.348,0,0,0,1.013,2.071,5.438,5.438,0,0,0,3.945,1.492m19.845,0a5.567,5.567,0,0,0,4-1.528,5.223,5.223,0,0,0,1.411-2.372l-2.748-.918a2.622,2.622,0,0,1-.726,1.22,2.681,2.681,0,0,1-1.933.726,2.972,2.972,0,0,1-2.093-.845,3.409,3.409,0,0,1-.873-2.423,3.37,3.37,0,0,1,.873-2.423,2.858,2.858,0,0,1,2.073-.824,2.49,2.49,0,0,1,1.858.705,3,3,0,0,1,.705,1.248l2.8-.939a5.364,5.364,0,0,0-1.314-2.329,5.722,5.722,0,0,0-4.113-1.571,5.94,5.94,0,0,0-4.253,1.718,6.221,6.221,0,0,0-1.741,4.422A6.186,6.186,0,0,0,25.5,22.374a6,6,0,0,0,4.3,1.71m-9.5,0a3.934,3.934,0,0,0,2.469-.705v-2.54a2.713,2.713,0,0,1-1.578.471,1.64,1.64,0,0,1-1.175-.377,1.636,1.636,0,0,1-.353-1.175V9H16.556v3.172h6.206v3.01H16.556v5.341a3.584,3.584,0,0,0,.918,2.563,3.922,3.922,0,0,0,2.827,1" transform="translate(3.402 7.807)" fill="#502c84"/>
    </g>
  </g>
</svg>
