<svg id="Group_783" data-name="Group 783" xmlns="http://www.w3.org/2000/svg" xmlns:xlink="http://www.w3.org/1999/xlink" width="28.107" height="28.11" viewBox="0 0 28.107 28.11">
  <defs>
    <clipPath id="clip-path">
      <rect id="Rectangle_1515" data-name="Rectangle 1515" width="28.107" height="28.11" fill="#1b8354"/>
    </clipPath>
    <clipPath id="clip-path-3">
      <rect id="Rectangle_1513" data-name="Rectangle 1513" width="17.976" height="20.592" fill="#1b8354"/>
    </clipPath>
  </defs>
  <g id="Group_332" data-name="Group 332" clip-path="url(#clip-path)">
    <g id="Group_331" data-name="Group 331" transform="translate(0 0)">
      <g id="Group_330" data-name="Group 330" clip-path="url(#clip-path)">
        <path id="Path_3423" data-name="Path 3423" d="M3.043,14.054a11.5,11.5,0,0,1,11.5-11.5A11.373,11.373,0,0,1,23.527,6.93c.289.37.434.554.42.8s-.193.42-.55.777l-.814.815a1.278,1.278,0,0,0,.9,2.181h3.194a1.278,1.278,0,0,0,1.22-1.66A14.033,14.033,0,1,0,14.541,28.109a1.278,1.278,0,1,0,0-2.556,11.5,11.5,0,0,1-11.5-11.5" transform="translate(-0.488 0)" fill="#1b8354"/>
        <g id="Group_329" data-name="Group 329" transform="translate(10.132 7.518)" opacity="0.4" style="mix-blend-mode: normal;isolation: isolate">
          <g id="Group_328" data-name="Group 328">
            <g id="Group_327" data-name="Group 327" clip-path="url(#clip-path-3)">
              <path id="Path_3424" data-name="Path 3424" d="M2.614,7.057a1.307,1.307,0,1,1,2.615,0v5.23a1.306,1.306,0,0,1-.383.924L2.231,15.826A1.307,1.307,0,0,1,.382,13.977l2.232-2.233Zm12.806,5.23a1.278,1.278,0,0,1,2.556,0c0,.469-.021.935-.063,1.392a1.277,1.277,0,1,1-2.544-.229q.051-.575.051-1.164m-.805,4.465a1.278,1.278,0,1,1,2.391.9,15,15,0,0,1-.719,1.612,1.278,1.278,0,0,1-2.268-1.178,12.123,12.123,0,0,0,.6-1.335m-2.47,4a1.278,1.278,0,1,1,1.872,1.739,14.371,14.371,0,0,1-1.369,1.293,1.278,1.278,0,1,1-1.629-1.969,11.824,11.824,0,0,0,1.126-1.063M8.5,23.4a1.278,1.278,0,1,1,1.064,2.323,13.547,13.547,0,0,1-1.411.553,1.277,1.277,0,0,1-.8-2.427A11.25,11.25,0,0,0,8.5,23.4" transform="translate(0 -5.75)" fill="#1b8354" fill-rule="evenodd"/>
            </g>
          </g>
        </g>
      </g>
    </g>
  </g>
</svg>
