+<svg xmlns="http://www.w3.org/2000/svg" xmlns:xlink="http://www.w3.org/1999/xlink" width="20" height="13.913" viewBox="0 0 20 13.913">
  <defs>
    <clipPath id="clip-path">
      <rect id="Rectangle_1559" data-name="Rectangle 1559" width="20" height="13.913" fill="none"/>
    </clipPath>
  </defs>
  <g id="Group_558" data-name="Group 558" transform="translate(0)">
    <g id="Group_425" data-name="Group 425" transform="translate(0 0)" clip-path="url(#clip-path)">
      <path id="Path_3446" data-name="Path 3446" d="M2.064.542H18.585a1.522,1.522,0,0,1,1.522,1.522V12.5a1.522,1.522,0,0,1-1.522,1.522H2.064A1.522,1.522,0,0,1,.542,12.5V2.064A1.522,1.522,0,0,1,2.064.542" transform="translate(-0.325 -0.325)" fill="#fff"/>
      <path id="Path_3450" data-name="Path 3450" d="M1.476,0H18.089a1.476,1.476,0,0,1,1.476,1.476V12a1.476,1.476,0,0,1-1.476,1.476H1.476A1.476,1.476,0,0,1,0,12V1.476A1.476,1.476,0,0,1,1.476,0Z" transform="translate(0.217 0.217)" fill="none" stroke="#e5e7eb" stroke-width="1.085"/>
      <path id="Path_3447" data-name="Path 3447" d="M10.393,16.217H9.2L8.3,12.7a.568.568,0,0,0-.266-.372,3.812,3.812,0,0,0-1.095-.372V11.82H8.868a.506.506,0,0,1,.5.44L9.83,14.8l1.193-2.976h1.161Zm2.455,0H11.72l.928-4.4h1.128Zm2.388-3.178a.44.44,0,0,1,.465-.372,2.048,2.048,0,0,1,1.094.2l.2-.946a2.782,2.782,0,0,0-1.028-.2c-1.095,0-1.891.609-1.891,1.454,0,.643.564.98.962,1.184.431.2.6.338.563.541,0,.3-.332.44-.663.44a2.773,2.773,0,0,1-1.161-.271l-.2.947a3.174,3.174,0,0,0,1.227.237c1.227.033,1.99-.575,1.99-1.488,0-1.15-1.559-1.217-1.559-1.724m5.506,3.178-.9-4.4h-.962a.5.5,0,0,0-.465.338l-1.658,4.058h1.161l.232-.642H19.58l.133.642ZM19.05,13l.331,1.657h-.929Z" transform="translate(-4.162 -7.023)" fill="#172b85" fill-rule="evenodd"/>
    </g>
  </g>
</svg>
